<svg width="255" height="60" viewBox="0 0 255 60" fill="none" xmlns="http://www.w3.org/2000/svg">
<rect x="1.5" y="1.5" width="252" height="57" rx="6.5" fill="url(#paint0_linear_101_2)" stroke="#414042" stroke-width="3"/>
<path d="M96.0273 33.6484C96.0273 35.2539 95.7461 36.6602 95.1836 37.8672C94.6328 39.0625 93.8711 40.0586 92.8984 40.8555C91.9375 41.6523 90.8066 42.25 89.5059 42.6484C88.2168 43.0469 86.8281 43.2461 85.3398 43.2461C84.7656 43.2461 84.1328 43.1699 83.4414 43.0176C82.7617 42.8652 82.0703 42.6777 81.3672 42.4551C80.6641 42.2207 79.9844 41.9746 79.3281 41.7168C78.6836 41.4473 78.1094 41.1953 77.6055 40.9609L78.3789 33.7188C79.375 34.3164 80.4766 34.7734 81.6836 35.0898C82.9023 35.3945 84.0977 35.5469 85.2695 35.5469C85.4922 35.5469 85.7617 35.541 86.0781 35.5293C86.3945 35.5059 86.6934 35.4531 86.9746 35.3711C87.2676 35.2773 87.5137 35.1426 87.7129 34.9668C87.9121 34.791 88.0117 34.5391 88.0117 34.2109C88.0117 33.9883 87.9414 33.8008 87.8008 33.6484C87.6602 33.4844 87.4785 33.3555 87.2559 33.2617C87.0332 33.1562 86.7812 33.0801 86.5 33.0332C86.2188 32.9746 85.9434 32.9336 85.6738 32.9102C85.4043 32.8867 85.1523 32.875 84.918 32.875C84.6836 32.875 84.4961 32.875 84.3555 32.875C83.3477 32.875 82.4277 32.6992 81.5957 32.3477C80.7754 31.9961 80.0664 31.5098 79.4688 30.8887C78.8828 30.2559 78.4258 29.5117 78.0977 28.6562C77.7695 27.7891 77.6055 26.8516 77.6055 25.8438C77.6055 24.4609 77.8809 23.2246 78.4316 22.1348C78.9941 21.0332 79.7383 20.1016 80.6641 19.3398C81.6016 18.5664 82.6738 17.9746 83.8809 17.5645C85.0879 17.1543 86.3359 16.9492 87.625 16.9492C88.1992 16.9492 88.791 16.9727 89.4004 17.0195C90.0098 17.0547 90.6133 17.125 91.2109 17.2305C91.8203 17.3359 92.4121 17.4707 92.9863 17.6348C93.5605 17.7988 94.1055 18.0039 94.6211 18.25L93.9531 25.3867C93.1562 25.1172 92.3184 24.8945 91.4395 24.7188C90.5723 24.5312 89.7227 24.4375 88.8906 24.4375C88.7383 24.4375 88.5391 24.4434 88.293 24.4551C88.0586 24.4551 87.8066 24.4727 87.5371 24.5078C87.2793 24.5312 87.0156 24.5723 86.7461 24.6309C86.4766 24.6895 86.2363 24.7715 86.0254 24.877C85.8145 24.9707 85.6445 25.0996 85.5156 25.2637C85.3867 25.4277 85.3281 25.6211 85.3398 25.8438C85.3516 26.1016 85.4453 26.3125 85.6211 26.4766C85.8086 26.6289 86.043 26.752 86.3242 26.8457C86.6172 26.9277 86.9336 26.9863 87.2734 27.0215C87.625 27.0566 87.9707 27.0801 88.3105 27.0918C88.6504 27.0918 88.9668 27.0918 89.2598 27.0918C89.5527 27.0801 89.793 27.0859 89.9805 27.1094C90.918 27.168 91.7617 27.3672 92.5117 27.707C93.2617 28.0469 93.8945 28.498 94.4102 29.0605C94.9375 29.623 95.3359 30.2969 95.6055 31.082C95.8867 31.8555 96.0273 32.7109 96.0273 33.6484ZM115.311 17.8633L115.135 25.3164L109.896 25.5273L108.561 42.1914L101.143 42.5781L101.178 25.9141L95.9395 26.1953L96.1504 17.8984L115.311 17.8633ZM136.018 41.4883L127.299 42.6133L126.244 38.6406H122.236L121.357 42.6133L112.393 41.7344L119.389 18.3203L129.162 17.8281L136.018 41.4883ZM125.611 33.2617L124.275 27.1445L122.975 33.2617H125.611ZM156.988 26.0547C156.988 26.9688 156.906 27.8008 156.742 28.5508C156.59 29.2891 156.344 29.9688 156.004 30.5898C155.664 31.2109 155.225 31.7852 154.686 32.3125C154.146 32.8398 153.496 33.3438 152.734 33.8242L156.918 41.2773L149.008 42.8242L146.301 35.3359L144.121 35.4062L143.805 42.7188H136.246C136.305 40.0469 136.357 37.3867 136.404 34.7383C136.463 32.0898 136.527 29.4297 136.598 26.7578C136.621 25.4102 136.645 24.0742 136.668 22.75C136.691 21.4258 136.738 20.0898 136.809 18.7422C137.629 18.4375 138.438 18.1855 139.234 17.9863C140.031 17.7871 140.828 17.6348 141.625 17.5293C142.434 17.4121 143.248 17.3359 144.068 17.3008C144.9 17.2539 145.75 17.2305 146.617 17.2305C147.953 17.2305 149.242 17.418 150.484 17.793C151.738 18.1562 152.846 18.707 153.807 19.4453C154.768 20.1836 155.535 21.1035 156.109 22.2051C156.695 23.3066 156.988 24.5898 156.988 26.0547ZM149.113 26.6172C149.113 26.125 149.043 25.6738 148.902 25.2637C148.773 24.8535 148.574 24.502 148.305 24.209C148.047 23.9043 147.719 23.6699 147.32 23.5059C146.934 23.3301 146.477 23.2422 145.949 23.2422C145.715 23.2422 145.486 23.2598 145.264 23.2949C145.041 23.3184 144.824 23.3594 144.613 23.418L144.332 29.957H144.754C145.258 29.957 145.768 29.8926 146.283 29.7637C146.811 29.6348 147.279 29.4355 147.689 29.166C148.111 28.8965 148.451 28.5508 148.709 28.1289C148.979 27.707 149.113 27.2031 149.113 26.6172ZM176.799 17.8633L176.623 25.3164L171.385 25.5273L170.049 42.1914L162.631 42.5781L162.666 25.9141L157.428 26.1953L157.639 17.8984L176.799 17.8633Z" fill="white"/>
<defs>
<linearGradient id="paint0_linear_101_2" x1="255" y1="30" x2="-1.10115e-06" y2="30" gradientUnits="userSpaceOnUse">
<stop stop-color="#42B908"/>
<stop offset="1" stop-color="#9AF135"/>
</linearGradient>
</defs>
</svg>
