<svg width="616" height="540" viewBox="0 0 616 540" fill="none" xmlns="http://www.w3.org/2000/svg">
<g filter="url(#filter0_d_134_38)">
<rect x="8" y="8" width="600" height="524" rx="8" fill="white" fill-opacity="0.9" shape-rendering="crispEdges"/>
<rect x="9.5" y="9.5" width="597" height="521" rx="6.5" stroke="#707277" stroke-width="3" shape-rendering="crispEdges"/>
</g>
<path d="M260.359 45.3125C260.828 45.3125 261.104 45.625 261.188 46.25V46.4844C261.188 46.9531 260.057 47.3438 257.797 47.6562C257.797 47.8854 257.141 48.0365 255.828 48.1094H254.188L253.609 48.2344C254.307 58.3177 254.771 63.7969 255 64.6719V65.4844C255 66.1615 254.729 66.6667 254.188 67H253.953C253.255 67 252.906 66.1823 252.906 64.5469C252.365 59.0781 251.938 53.6771 251.625 48.3438C251.625 48.1875 251.547 48.1094 251.391 48.1094H244.75C244.281 47.8698 244.047 47.4427 244.047 46.8281C244.234 46.2865 244.505 46.0156 244.859 46.0156C247.974 45.9427 250.229 45.9062 251.625 45.9062C251.75 45.5938 252.021 45.4375 252.438 45.4375H252.672C252.953 45.4375 253.266 45.5938 253.609 45.9062H254.312C254.833 45.9062 256.849 45.7083 260.359 45.3125ZM269.859 48.3906C270.245 48.3073 270.578 48.3073 270.859 48.3906C271.932 48.974 272.469 50.0521 272.469 51.625C272.469 53.5 271.438 55.526 269.375 57.7031C270.292 57.7031 271.198 58.4062 272.094 59.8125C272.26 60.3438 272.344 60.7135 272.344 60.9219V63.6562C272.146 65.0417 271.484 66.0312 270.359 66.625C270.109 66.875 269.823 67 269.5 67C268.229 67.2396 266.99 67.2396 265.781 67C264.875 66.6458 264.13 66.0677 263.547 65.2656C263.047 64.7135 262.797 64.0521 262.797 63.2812V59.3125C262.901 57.6146 263.24 56.224 263.812 55.1406C265.156 51.8698 267.172 49.6198 269.859 48.3906ZM264.531 59.0625L264.781 59.1875H264.906C267.833 57.3646 269.776 55.4219 270.734 53.3594C270.901 52.401 270.984 51.6562 270.984 51.125C270.87 50.5417 270.703 50.25 270.484 50.25H269.984C268.964 50.25 267.724 51.3698 266.266 53.6094C265.234 55.5365 264.656 57.3542 264.531 59.0625ZM264.531 61.5469V61.6719C264.531 63.8594 265.141 65.2083 266.359 65.7188C266.484 65.7917 266.828 65.849 267.391 65.8906C268.995 65.8906 270.109 65.2292 270.734 63.9062L270.859 63.1562V61.6719C270.589 60.1823 270.01 59.4375 269.125 59.4375H268C265.688 60.1354 264.531 60.8385 264.531 61.5469ZM282.688 51.4531C286.917 52.1198 289.031 54.5833 289.031 58.8438V59C289.031 62.5938 287.521 65.1094 284.5 66.5469C283.542 66.849 282.938 67 282.688 67C279.906 67 277.995 66.0417 276.953 64.125C275.849 63.1667 275.297 61.3594 275.297 58.7031C275.495 57.2344 276.047 55.776 276.953 54.3281C278.401 52.4115 280.312 51.4531 282.688 51.4531ZM277.266 58.8438C277.266 61.6979 278.167 63.6094 279.969 64.5781L280.281 64.4375C280.531 64.4375 281.135 64.5885 282.094 64.8906H283C285.708 64.3594 287.062 62.5469 287.062 59.4531V59C287.062 56.2083 286.208 54.5 284.5 53.875C284.115 53.5729 283.661 53.4219 283.141 53.4219H281.641C280.807 53.4219 279.802 53.974 278.625 55.0781C277.719 56.6094 277.266 57.8646 277.266 58.8438ZM294.422 47.0938H295.172C296.495 47.6042 297.203 47.8594 297.297 47.8594H297.609C297.943 47.8594 298.703 47.6042 299.891 47.0938H300.344C300.854 47.3542 301.109 47.7604 301.109 48.3125C300.078 49.4271 299.266 49.9844 298.672 49.9844H296.844C295.146 49.4219 294.135 48.8646 293.812 48.3125V47.7031C293.812 47.5469 294.016 47.3438 294.422 47.0938ZM302.172 51.5C302.589 51.6354 302.891 51.8906 303.078 52.2656V58.1875C303.411 62.1354 303.818 64.1094 304.297 64.1094H304.453C304.818 63.8073 305.172 63.6562 305.516 63.6562C305.922 63.6562 306.224 63.8594 306.422 64.2656V65.0312C305.724 66.1458 304.865 66.7031 303.844 66.7031C303.052 66.7031 302.339 65.8385 301.703 64.1094H301.562C300.312 65.9323 299.094 66.8438 297.906 66.8438C297.521 66.9479 297.12 67 296.703 67H296.547C295.464 67 294.146 66.0885 292.594 64.2656C291.479 62.8281 290.922 60.8542 290.922 58.3438V57.875C291.224 53.7292 291.63 51.6562 292.141 51.6562H293.047C293.557 51.9375 293.812 52.3438 293.812 52.875C293.604 53.0938 293.297 55.1198 292.891 58.9531C293.026 60.7656 293.583 62.3333 294.562 63.6562C295.208 64.2917 295.818 64.75 296.391 65.0312C299.026 64.3854 300.344 62.7604 300.344 60.1562C300.75 58.0521 300.953 55.5729 300.953 52.7188V51.9531C301.016 51.651 301.422 51.5 302.172 51.5ZM316.469 51.2969H316.719C317.76 51.2969 318.281 52.3854 318.281 54.5625C318.281 55.8229 318.443 56.9896 318.766 58.0625V60L318.891 60.5938H319.016C319.172 60.5938 319.25 60.5156 319.25 60.3594V58.5469C321.156 56.7552 322.969 54.7812 324.688 52.625H324.812C325.469 52.625 325.911 53.0677 326.141 53.9531V54.2031L322.75 59.1406V59.3906C323.073 59.9323 324.604 61.625 327.344 64.4688L328.062 65.4219V66.0312C327.865 66.4375 327.547 66.6406 327.109 66.6406H326.734C323.474 63.1302 321.703 61.2344 321.422 60.9531H321.062C320.312 62.0885 319.505 62.6562 318.641 62.6562C318.641 62.8125 318.604 62.8906 318.531 62.8906L318.641 63.7344V64.9531C318.641 66.3177 318.198 67 317.312 67C316.833 66.5104 316.594 66.1094 316.594 65.7969C316.594 63.4219 316.432 58.75 316.109 51.7812C316.234 51.4583 316.354 51.2969 316.469 51.2969ZM335.781 51.4688C336.292 51.4062 336.865 51.4062 337.5 51.4688C339.24 51.6042 340.51 52.4167 341.312 53.9062C341.479 54.1667 341.615 54.4792 341.719 54.8438C341.792 55.2708 341.792 55.6771 341.719 56.0625C341.781 56.9792 341.406 57.6875 340.594 58.1875C339.458 58.6562 338.349 58.8854 337.266 58.875L332.812 58.8906L332.141 59.0312C332.141 62.5 333.219 64.5052 335.375 65.0469C335.917 65.1823 336.411 65.25 336.859 65.25C337.151 65.25 337.417 65.2083 337.656 65.125C338.958 64.4271 339.807 63.5 340.203 62.3438C340.224 62.2812 340.245 62.2188 340.266 62.1562C340.37 61.9896 340.542 61.8958 340.781 61.875C341.26 61.875 341.573 62.0521 341.719 62.4062C341.823 62.7083 341.823 63.026 341.719 63.3594C341.49 64.2344 341.042 65.0417 340.375 65.7812C340.021 66.1354 339.391 66.5417 338.484 67C337.37 67.3021 336.286 67.3021 335.234 67C334.474 66.7708 333.802 66.4115 333.219 65.9219C331.323 64.5677 330.375 62.7656 330.375 60.5156C330.333 60.401 330.312 60.2708 330.312 60.125L330.359 59.2031C330.349 58.2656 330.625 56.9479 331.188 55.25C331.583 54.1979 332.172 53.3854 332.953 52.8125C333.859 52.0417 334.802 51.5938 335.781 51.4688ZM332.547 56.875L332.812 57H335.781C338.396 56.7292 339.703 56.2344 339.703 55.5156V55.25C339.589 53.8958 338.953 53.151 337.797 53.0156C337.339 52.8698 336.849 52.849 336.328 52.9531C335.422 52.9948 334.474 53.5781 333.484 54.7031L332.547 56.875ZM343.453 51.2812H343.984C344.401 51.5 344.693 51.8542 344.859 52.3438L344.688 53.9219C345.094 59.8802 345.734 63.224 346.609 63.9531C346.609 64.1094 346.906 64.401 347.5 64.8281H347.844C349.198 64.8281 350.078 63.7135 350.484 61.4844V57.2656C350.599 54.5052 350.953 52.9792 351.547 52.6875H352.062C352.698 52.6875 353.052 53.6823 353.125 55.6719C353.125 57.4635 352.948 59.2865 352.594 61.1406V61.8438C352.865 63.5938 353.688 64.4688 355.062 64.4688C356.708 64.4688 357.646 63.2969 357.875 60.9531C358.281 54.5052 358.75 51.2812 359.281 51.2812H359.984C360.151 51.2812 360.328 51.4583 360.516 51.8125V52.5156C360.516 54.9323 360.281 58.0417 359.812 61.8438C359.812 62.7604 360.75 64.3438 362.625 66.5938C362.469 67.0729 362.177 67.4219 361.75 67.6406C361.135 67.6406 360.135 66.7604 358.75 65C357.729 66.2917 356.849 66.9375 356.109 66.9375H354.188C353.583 66.9375 352.641 66.2917 351.359 65C350.818 65.8229 350.115 66.4688 349.25 66.9375H347.141C344.953 66.9375 343.604 63.9479 343.094 57.9688C343.094 57.2917 343.036 55.8229 342.922 53.5625C343.005 52.0417 343.182 51.2812 343.453 51.2812ZM367.25 51.8125H367.641C367.818 51.8125 368.203 52.2031 368.797 52.9844C368.63 54.151 368.047 54.7344 367.047 54.7344C366.453 54.4844 366.13 54.224 366.078 53.9531V52.7812C366.078 52.5938 366.469 52.2708 367.25 51.8125ZM366.859 64.2812H367.047C367.755 64.2812 368.276 64.6042 368.609 65.25V66.0312C368.234 66.6771 367.844 67 367.438 67C366.396 66.8333 365.875 66.3125 365.875 65.4375C366.052 64.9062 366.38 64.5208 366.859 64.2812Z" fill="#414042"/>
<path d="M573.645 116H42.3548C39.9497 116 38 118.068 38 120.619V370.381C38 372.932 39.9497 375 42.3548 375H573.645C576.05 375 578 372.932 578 370.381V120.619C578 118.068 576.05 116 573.645 116Z" fill="url(#paint0_linear_134_38)"/>
<path d="M42.3548 117.5H573.645C575.14 117.5 576.5 118.812 576.5 120.619V370.381C576.5 372.188 575.14 373.5 573.645 373.5H42.3548C40.8601 373.5 39.5 372.188 39.5 370.381V120.619C39.5 118.812 40.8601 117.5 42.3548 117.5Z" stroke="#414042" stroke-width="3" stroke-miterlimit="10"/>
<rect x="199.5" y="86.5" width="217" height="61" rx="30.5" fill="url(#paint1_linear_134_38)" stroke="#414042" stroke-width="3"/>
<g style="mix-blend-mode:multiply" opacity="0.65">
<g style="mix-blend-mode:multiply" opacity="0.65">
<path d="M249.844 126.717C249.501 128.154 248.868 129.506 247.984 130.687C247.012 132.009 245.591 132.925 243.992 133.261L244.042 136.298L244.085 137.745V138.128C244.085 138.453 244.028 138.648 243.92 138.735C243.654 138.847 243.368 138.903 243.08 138.902C241.874 138.967 241.206 138.996 241.077 138.996H240.933C240.839 139.006 240.744 138.997 240.653 138.969C240.563 138.94 240.48 138.892 240.409 138.829C240.293 138.652 240.242 138.44 240.265 138.229V135.864L240.215 133.326C239.043 133.134 237.936 132.655 236.991 131.931C236.136 131.285 235.426 130.464 234.908 129.523C234.464 128.736 234.204 127.858 234.147 126.955C234.147 126.283 234.097 125.307 234.097 124.019V121.084C234.097 120.83 234.14 120.671 234.219 120.606C234.374 120.525 234.549 120.492 234.722 120.512H236.632C238.133 120.512 238.958 120.592 239.116 120.751C239.274 120.91 239.31 121.423 239.31 122.479C239.31 123.383 239.31 124.019 239.353 124.41C239.484 125.203 239.77 125.963 240.193 126.644C240.405 127.026 240.72 127.339 241.101 127.547C241.483 127.756 241.915 127.852 242.348 127.823C242.793 127.866 243.24 127.756 243.616 127.512C243.993 127.268 244.277 126.904 244.423 126.478C244.805 125.266 244.975 123.996 244.925 122.725C244.939 122.25 244.85 121.778 244.666 121.342C244.481 120.905 244.205 120.513 243.856 120.194C242.833 119.327 241.718 118.578 240.531 117.96C239.368 117.352 238.249 116.661 237.185 115.891C236.268 115.198 235.503 114.322 234.937 113.317C234.283 112.116 233.961 110.76 234.004 109.39C234.011 108.382 234.258 107.391 234.722 106.498C235.243 105.482 235.978 104.594 236.876 103.895C237.874 103.122 239.033 102.588 240.265 102.333C240.265 101.176 240.265 100.308 240.222 99.7366L240.172 97.7118V97.3141C240.172 96.9886 240.229 96.8006 240.337 96.7355C240.607 96.6387 240.891 96.5897 241.177 96.5909L243.224 96.4463H243.339C243.791 96.4463 244.014 96.7066 244.014 97.2128L244.057 99.4762V102.268C246.417 102.75 247.905 103.625 248.523 104.893C249.148 106.158 249.471 106.809 249.507 106.845C249.655 107.023 249.754 107.238 249.794 107.467C249.794 107.597 249.614 107.785 249.27 108.045C247.992 108.812 247.02 109.374 246.354 109.73C246.265 109.774 246.166 109.791 246.067 109.781C245.78 109.781 245.636 109.73 245.636 109.636C245.367 108.911 244.923 108.265 244.344 107.756C243.818 107.242 243.117 106.949 242.384 106.939C241.561 106.916 240.755 107.171 240.093 107.662C239.765 107.943 239.509 108.299 239.348 108.701C239.187 109.103 239.125 109.538 239.167 109.969C239.169 110.368 239.268 110.761 239.454 111.114C239.641 111.466 239.909 111.768 240.237 111.994C241.109 112.624 242.048 113.155 243.037 113.577L243.489 113.794C243.661 113.875 243.829 113.964 243.992 114.062C244.925 114.672 245.827 115.331 246.692 116.036C247.633 116.869 248.44 117.845 249.083 118.929C249.903 120.239 250.324 121.762 250.297 123.311C250.268 124.459 250.116 125.601 249.844 126.717V126.717Z" fill="#677AA0"/>
</g>
</g>
<path d="M249.844 125.27C249.501 126.708 248.868 128.059 247.985 129.24C247.012 130.562 245.591 131.479 243.992 131.815L244.042 134.852L244.085 136.298V136.682C244.085 137.007 244.028 137.202 243.92 137.289C243.654 137.4 243.368 137.457 243.08 137.455C241.874 137.52 241.206 137.549 241.077 137.549H240.933C240.839 137.56 240.744 137.551 240.653 137.522C240.563 137.494 240.48 137.446 240.409 137.383C240.293 137.206 240.242 136.994 240.265 136.783V134.418L240.215 131.88C239.043 131.688 237.936 131.209 236.991 130.484C236.136 129.839 235.426 129.018 234.909 128.076C234.464 127.29 234.204 126.412 234.147 125.509C234.147 124.837 234.097 123.86 234.097 122.573V119.637C234.097 119.384 234.14 119.225 234.219 119.16C234.374 119.079 234.549 119.046 234.722 119.066H236.632C238.133 119.066 238.958 119.146 239.116 119.305C239.274 119.464 239.31 119.977 239.31 121.033C239.31 121.937 239.31 122.573 239.353 122.964C239.484 123.757 239.77 124.517 240.194 125.198C240.405 125.579 240.72 125.892 241.101 126.101C241.483 126.31 241.915 126.405 242.348 126.377C242.793 126.419 243.24 126.31 243.616 126.066C243.993 125.822 244.277 125.458 244.423 125.032C244.805 123.82 244.975 122.55 244.926 121.279C244.939 120.804 244.851 120.332 244.666 119.895C244.481 119.458 244.205 119.067 243.856 118.748C242.833 117.881 241.718 117.131 240.531 116.513C239.368 115.906 238.249 115.215 237.185 114.445C236.268 113.752 235.503 112.875 234.937 111.871C234.283 110.669 233.961 109.313 234.004 107.944C234.012 106.936 234.258 105.945 234.722 105.052C235.243 104.036 235.978 103.147 236.876 102.448C237.885 101.665 239.059 101.125 240.308 100.872C240.308 99.7148 240.308 98.8471 240.265 98.2758L240.215 96.251V95.8678C240.215 95.5424 240.273 95.3543 240.38 95.2893C240.65 95.1924 240.934 95.1434 241.22 95.1446L243.224 95H243.339C243.791 95 244.014 95.2603 244.014 95.7665L244.057 98.0299V100.821C246.417 101.303 247.906 102.178 248.523 103.446C249.148 104.712 249.471 105.363 249.507 105.399C249.655 105.577 249.754 105.792 249.794 106.021C249.794 106.151 249.615 106.339 249.27 106.599C247.992 107.366 247.02 107.927 246.354 108.284C246.265 108.328 246.166 108.345 246.067 108.335C245.78 108.335 245.636 108.284 245.636 108.19C245.367 107.465 244.923 106.819 244.344 106.31C243.818 105.795 243.117 105.503 242.384 105.493C241.561 105.47 240.755 105.724 240.093 106.216C239.765 106.496 239.51 106.853 239.348 107.255C239.187 107.656 239.125 108.091 239.167 108.523C239.169 108.922 239.268 109.315 239.454 109.667C239.641 110.02 239.909 110.322 240.237 110.547C241.109 111.178 242.048 111.709 243.037 112.131L243.489 112.348C243.661 112.429 243.829 112.518 243.992 112.616C244.926 113.226 245.827 113.885 246.692 114.59C247.633 115.423 248.44 116.399 249.083 117.482C249.903 118.793 250.324 120.316 250.297 121.864C250.268 123.013 250.116 124.155 249.844 125.27V125.27Z" fill="white"/>
<defs>
<filter id="filter0_d_134_38" x="0" y="0" width="616" height="540" filterUnits="userSpaceOnUse" color-interpolation-filters="sRGB">
<feFlood flood-opacity="0" result="BackgroundImageFix"/>
<feColorMatrix in="SourceAlpha" type="matrix" values="0 0 0 0 0 0 0 0 0 0 0 0 0 0 0 0 0 0 127 0" result="hardAlpha"/>
<feOffset/>
<feGaussianBlur stdDeviation="4"/>
<feComposite in2="hardAlpha" operator="out"/>
<feColorMatrix type="matrix" values="0 0 0 0 0 0 0 0 0 0 0 0 0 0 0 0 0 0 0.25 0"/>
<feBlend mode="normal" in2="BackgroundImageFix" result="effect1_dropShadow_134_38"/>
<feBlend mode="normal" in="SourceGraphic" in2="effect1_dropShadow_134_38" result="shape"/>
</filter>
<linearGradient id="paint0_linear_134_38" x1="113.225" y1="452.077" x2="525.666" y2="63.2016" gradientUnits="userSpaceOnUse">
<stop stop-color="#00ADFF"/>
<stop offset="1" stop-color="#51C7FF"/>
</linearGradient>
<linearGradient id="paint1_linear_134_38" x1="308" y1="85" x2="308" y2="149" gradientUnits="userSpaceOnUse">
<stop stop-color="#42B908"/>
<stop offset="1" stop-color="#9AF135"/>
</linearGradient>
</defs>
</svg>
