<svg width="302" height="126" viewBox="0 0 302 126" fill="none" xmlns="http://www.w3.org/2000/svg">
<path d="M0.546875 0.859375C0.817708 0.723958 1.08333 0.723958 1.34375 0.859375C1.80208 1.30729 3.36458 3.58854 6.03125 7.70312L9.21875 11.9219H9.34375C9.64583 11.9219 10.3646 10.1719 11.5 6.67188C11.8958 5.83854 12.3906 4.39583 12.9844 2.34375C12.9844 2.22917 13.2552 1.95833 13.7969 1.53125H14.125C14.2396 1.53125 14.4688 1.76042 14.8125 2.21875V2.34375C14.8125 3.54167 13.4844 7.38021 10.8281 13.8594C9.68229 16.1823 8.69271 19 7.85938 22.3125C7.58854 22.7708 7.24479 23 6.82812 23H6.71875C6.39583 22.8646 6.13021 22.599 5.92188 22.2031C6.36979 20.1719 7.08854 17.849 8.07812 15.2344C8.24479 15.0469 8.32292 14.6667 8.3125 14.0938C8.3125 13.875 6.94271 11.9323 4.20312 8.26562C3.64062 7.55729 2.57292 5.96354 1 3.48438C0.395833 2.73438 0.09375 2.125 0.09375 1.65625C0.09375 1.25 0.244792 0.984375 0.546875 0.859375ZM22.6719 7.35938H23.7969C24.9115 7.41146 26.224 8.10938 27.7344 9.45312C28.6823 10.4115 29.474 12.099 30.1094 14.5156L30.25 15.2188C30.25 17.2083 29.1771 18.8906 27.0312 20.2656C26 20.6406 25.2031 20.8281 24.6406 20.8281H21.9688L18.75 19.7031H18.4688C18.5625 22.651 18.7969 25.4115 19.1719 27.9844C18.9323 28.8281 18.5573 29.25 18.0469 29.25C17.3906 29.25 17.0625 28.125 17.0625 25.875C16.875 25.375 16.6875 22.7552 16.5 18.0156C16.5 11.9115 18.3229 8.40625 21.9688 7.5C22.125 7.40625 22.3594 7.35938 22.6719 7.35938ZM18.4688 16.6094V17.0312C18.4688 17.5625 19.8229 18.1719 22.5312 18.8594C22.6562 18.8594 23.125 18.9062 23.9375 19C26.6562 18.5312 28.0156 17.6875 28.0156 16.4688C28.2031 16.4688 28.2969 16.2396 28.2969 15.7812V14.7969C27.9427 12.974 27.1458 11.474 25.9062 10.2969C24.8021 9.54688 23.9115 9.17188 23.2344 9.17188C20.901 9.79688 19.7344 10.5469 19.7344 11.4219C18.8906 12.5365 18.4688 14.2656 18.4688 16.6094ZM34.3594 7.4375C34.9219 7.125 35.776 7.08333 36.9219 7.3125C39.1094 7.60417 40.8958 9.08333 42.2812 11.75C43.3021 13.6562 43.9792 15.7448 44.3125 18.0156C43.9583 19.8073 42.4792 21.4115 39.875 22.8281C38.6146 23.0677 37.5104 23.0677 36.5625 22.8281C34.3438 21.7865 33.1771 20.5677 33.0625 19.1719C33.0104 18.5469 33.0677 17.9792 33.2344 17.4688C33.7865 15.6875 34.7708 14.3958 36.1875 13.5938C36.9792 13.2188 37.5833 13.0052 38 12.9531C38.6354 12.8698 39.3229 12.8958 40.0625 13.0312C40.4479 13.1458 40.8958 13.2708 41.4062 13.4062L41.3594 13.7812V13.4062C40.1094 10.4479 38.6302 8.96875 36.9219 8.96875H35.4531C33.9844 9.63542 33.1146 9.94792 32.8438 9.90625C32.3646 9.95833 32.125 9.89583 32.125 9.71875V9.34375C32.125 8.5625 32.8698 7.92708 34.3594 7.4375ZM35.0781 17.4688C34.651 18.1562 34.6198 18.875 34.9844 19.625C35.1719 20.1458 36.125 20.7188 37.8438 21.3438C39.25 21.3438 40.6042 20.3594 41.9062 18.3906C42.0312 18.1823 42.0938 17.875 42.0938 17.4688C41.8438 16.1354 40.9219 15.2708 39.3281 14.875H38.7656C37.4115 14.875 36.1823 15.7396 35.0781 17.4688ZM50.75 0.3125H51.6875L52.4375 0.890625C52.3125 4.47396 52.25 7.18229 52.25 9.01562V14.7188C52.25 16.5312 51.5625 17.4375 50.1875 17.4375C49.6667 17.3021 49.2865 17.0625 49.0469 16.7188V16.5781C49.4219 15.6719 49.6094 15.099 49.6094 14.8594V8.45312C49.6094 6.94271 49.6719 4.46875 49.7969 1.03125C49.8802 1.03125 50.1979 0.791667 50.75 0.3125ZM49.9844 20H50.75C51.625 20.4688 52.0625 20.9948 52.0625 21.5781V21.7188C52.0625 21.9583 51.4375 22.3854 50.1875 23H49.7969C49.0469 22.6562 48.6719 22.0833 48.6719 21.2812C48.6719 20.7604 49.1094 20.3333 49.9844 20ZM8.60938 33.1875C10.7031 33.1875 12.8073 33.6094 14.9219 34.4531C15.3802 34.8385 15.6094 35.0677 15.6094 35.1406V35.9531C15.6094 36.151 15.3021 36.3021 14.6875 36.4062C12.0833 35.6458 10.2083 35.2656 9.0625 35.2656C7.05208 35.2656 5.17708 36.4896 3.4375 38.9375C2.60417 41.0417 2.1875 42.4531 2.1875 43.1719C2.10417 43.6719 2.0625 44.5156 2.0625 45.7031C2.0625 49.2344 3.13542 51.5312 5.28125 52.5938C6.27083 53.125 7.11458 53.3906 7.8125 53.3906H10.4375L12.9688 52.7031C13.3854 52.7031 13.6927 52.8958 13.8906 53.2812V53.8594C13.5573 54.5469 12.7552 54.8906 11.4844 54.8906C11.1927 54.8906 10.2344 54.9271 8.60938 55C6.96354 54.8438 5.58333 54.5 4.46875 53.9688C2.02083 52.1771 0.796875 50.724 0.796875 49.6094C0.494792 49.6094 0.229167 48.2708 0 45.5938C0 42.3646 0.729167 39.5677 2.1875 37.2031C3.80208 35.2344 5.25521 34.0885 6.54688 33.7656C7.46354 33.3802 8.15104 33.1875 8.60938 33.1875ZM22.8594 39.4688C23.3698 39.4062 23.9427 39.4062 24.5781 39.4688C26.3177 39.6042 27.5885 40.4167 28.3906 41.9062C28.5573 42.1667 28.6927 42.4792 28.7969 42.8438C28.8698 43.2708 28.8698 43.6771 28.7969 44.0625C28.8594 44.9792 28.4844 45.6875 27.6719 46.1875C26.5365 46.6562 25.4271 46.8854 24.3438 46.875L19.8906 46.8906L19.2188 47.0312C19.2188 50.5 20.2969 52.5052 22.4531 53.0469C22.9948 53.1823 23.4896 53.25 23.9375 53.25C24.2292 53.25 24.4948 53.2083 24.7344 53.125C26.0365 52.4271 26.8854 51.5 27.2812 50.3438C27.3021 50.2812 27.3229 50.2188 27.3438 50.1562C27.4479 49.9896 27.6198 49.8958 27.8594 49.875C28.3385 49.875 28.651 50.0521 28.7969 50.4062C28.901 50.7083 28.901 51.026 28.7969 51.3594C28.5677 52.2344 28.1198 53.0417 27.4531 53.7812C27.099 54.1354 26.4688 54.5417 25.5625 55C24.4479 55.3021 23.3646 55.3021 22.3125 55C21.5521 54.7708 20.8802 54.4115 20.2969 53.9219C18.401 52.5677 17.4531 50.7656 17.4531 48.5156C17.4115 48.401 17.3906 48.2708 17.3906 48.125L17.4375 47.2031C17.4271 46.2656 17.7031 44.9479 18.2656 43.25C18.6615 42.1979 19.25 41.3854 20.0312 40.8125C20.9375 40.0417 21.8802 39.5938 22.8594 39.4688ZM19.625 44.875L19.8906 45H22.8594C25.474 44.7292 26.7812 44.2344 26.7812 43.5156V43.25C26.6667 41.8958 26.0312 41.151 24.875 41.0156C24.4167 40.8698 23.9271 40.849 23.4062 40.9531C22.5 40.9948 21.5521 41.5781 20.5625 42.7031L19.625 44.875ZM35.8594 39.2969C36.5573 39.0885 37.3906 39.0625 38.3594 39.2188C38.9427 39.2604 39.5104 39.5 40.0625 39.9375C41 40.6771 41.651 41.5365 42.0156 42.5156C42.0365 42.7344 42.0104 42.9323 41.9375 43.1094C41.6667 44.0573 40.9948 44.849 39.9219 45.4844C36.6615 46.901 34.9062 47.6094 34.6562 47.6094C33.5104 48.2552 32.7552 49.1562 32.3906 50.3125V50.4531C32.3906 51.974 33.6667 52.7812 36.2188 52.875H36.3594C37.974 52.875 39.9635 51.974 42.3281 50.1719C42.6823 49.8802 43.0156 49.7344 43.3281 49.7344H43.4688C43.8438 49.7552 44.1302 49.9948 44.3281 50.4531C44.4115 50.7552 44.4115 51.0365 44.3281 51.2969C41.4531 53.7656 38.75 55 36.2188 55C33.2917 55 31.2552 53.8646 30.1094 51.5938C29.9635 50.8333 29.9635 50.0729 30.1094 49.3125C30.7031 48.1667 31.6042 47.1719 32.8125 46.3281C34.0104 45.6615 35.8594 44.9062 38.3594 44.0625C39.151 43.8333 39.5781 43.4062 39.6406 42.7812C39.4427 41.7396 38.5417 41.2188 36.9375 41.2188C36 41.2188 34.5312 41.6927 32.5312 42.6406H31.8125C31.8125 42.5885 31.625 42.349 31.25 41.9219V41.5C31.25 40.875 32.625 40.1667 35.375 39.375C35.4792 39.3229 35.6406 39.2969 35.8594 39.2969ZM53.0156 39.4531C57.2448 40.1198 59.3594 42.5833 59.3594 46.8438V47C59.3594 50.5938 57.849 53.1094 54.8281 54.5469C53.8698 54.849 53.2656 55 53.0156 55C50.2344 55 48.3229 54.0417 47.2812 52.125C46.1771 51.1667 45.625 49.3594 45.625 46.7031C45.8229 45.2344 46.375 43.776 47.2812 42.3281C48.7292 40.4115 50.6406 39.4531 53.0156 39.4531ZM47.5938 46.8438C47.5938 49.6979 48.4948 51.6094 50.2969 52.5781L50.6094 52.4375C50.8594 52.4375 51.4635 52.5885 52.4219 52.8906H53.3281C56.0365 52.3594 57.3906 50.5469 57.3906 47.4531V47C57.3906 44.2083 56.5365 42.5 54.8281 41.875C54.4427 41.5729 53.9896 41.4219 53.4688 41.4219H51.9688C51.1354 41.4219 50.1302 41.974 48.9531 43.0781C48.0469 44.6094 47.5938 45.8646 47.5938 46.8438ZM67 39.4219H67.6562C69.1354 39.526 70.8281 40.9479 72.7344 43.6875L72.9062 44.5156C72.9062 45.0885 72.849 46.0156 72.7344 47.2969L73.0625 51.5625C73.875 51.5625 74.3125 51.7292 74.375 52.0625V52.2188C74.375 52.3021 73.9948 52.6875 73.2344 53.375V54.3594C73.2344 57.9115 72.1406 60.0417 69.9531 60.75C69.151 60.8438 68.6042 61.0104 68.3125 61.25H67.4844C66.3906 60.8958 65.4062 60.5104 64.5312 60.0938C63 58.8854 62.2344 57.7917 62.2344 56.8125V56.6562C62.2344 55.2292 64.8594 53.9167 70.1094 52.7188C70.1094 52.5625 70.5469 52.3438 71.4219 52.0625C71.3385 50.9688 71.1771 50.4219 70.9375 50.4219C70.0208 51.8385 68.4896 52.5469 66.3438 52.5469C63.9271 52.5469 62.2865 50.9635 61.4219 47.7969L61.25 47.4688V46.9688C61.4375 46.7188 61.6562 45.901 61.9062 44.5156C62.7812 42.0156 63.9844 40.4844 65.5156 39.9219C65.9323 39.5885 66.4271 39.4219 67 39.4219ZM63.2188 47.2969C63.2188 48.776 64.151 49.8698 66.0156 50.5781H67.1562C68.6771 50.5781 69.8802 49.375 70.7656 46.9688L70.9375 45.9844V45.3281C70.25 43.1719 69.7031 42.026 69.2969 41.8906C68.526 41.5573 67.651 41.3385 66.6719 41.2344C65.1198 41.2344 64.026 42.875 63.3906 46.1562L63.2188 47.2969ZM64.2031 56.8125C64.6198 58.4583 65.7708 59.2812 67.6562 59.2812C70.0625 59.2812 71.2656 58.0781 71.2656 55.6719C71.3698 54.7135 71.4219 54.1667 71.4219 54.0312L71.0938 53.8594C66.6771 55.276 64.3802 56.2604 64.2031 56.8125ZM87.9688 39.1562C88.7917 39.1562 89.2031 40.6615 89.2031 43.6719C89.2031 44.1615 89.4115 47.724 89.8281 54.3594C89.6198 54.9115 89.4115 55.1875 89.2031 55.1875H88.7969C88.599 55.1875 88.3906 54.9844 88.1719 54.5781C88.0781 49.9115 87.9427 47.5781 87.7656 47.5781C87.526 47.4427 87.2552 47.375 86.9531 47.375H79.3438C79.1042 47.375 78.7604 49.3646 78.3125 53.3438C77.9688 53.6146 77.7656 53.75 77.7031 53.75H77.4844L76.875 53.3438C77.2812 50.375 77.4844 46.6719 77.4844 42.2344C77.4844 42.0156 77.4167 41.1927 77.2812 39.7656L77.9062 39.3594H78.3125C78.7292 39.4427 78.9375 39.9896 78.9375 41V45.5312C78.9792 45.8021 79.1146 45.9375 79.3438 45.9375H87.5625V45.7344C87.5625 45.1198 87.4948 43.0625 87.3594 39.5625L87.9688 39.1562ZM98.875 39.1094C99.4062 39.1094 100.141 39.4583 101.078 40.1562C101.339 40 101.573 39.9219 101.781 39.9219H102.016C102.297 40.0052 102.604 40.4688 102.938 41.3125C103.021 43.3542 103.062 45.0573 103.062 46.4219C103.062 47.0469 103.021 47.5469 102.938 47.9219C103.021 48.5156 103.062 49.1719 103.062 49.8906V53.6094C102.812 54.151 102.464 54.4219 102.016 54.4219H101.891C101.432 54.224 101.203 53.9115 101.203 53.4844V51.875C101.203 50.0938 101.083 49.2031 100.844 49.2031C100.583 49.2031 98.6927 51.1354 95.1719 55H94.2344C94.1302 55 94.0156 54.8854 93.8906 54.6562V54.4219C93.8906 53.7656 94.625 52.7604 96.0938 51.4062C96.0938 51.3229 96.7135 50.7031 97.9531 49.5469V49.4375H97.25C96.3021 49.4375 95.224 48.974 94.0156 48.0469C93.0052 46.9635 92.5 45.8385 92.5 44.6719C92.5 43.4427 93.1198 42.1302 94.3594 40.7344C95.5365 39.651 97.0417 39.1094 98.875 39.1094ZM94.4688 44.7969C94.4688 46.401 95.5156 47.3281 97.6094 47.5781C100.005 47.0469 101.203 45.9271 101.203 44.2188V43.0469C100.141 41.6615 99.25 40.9688 98.5312 40.9688C97.5833 40.9688 96.6927 41.276 95.8594 41.8906C94.9323 42.6823 94.4688 43.651 94.4688 44.7969ZM113.859 39.5781H114.359C114.526 39.5781 114.807 39.9115 115.203 40.5781V45.9531C115.234 46.1719 115.344 46.2812 115.531 46.2812C116.146 43.9271 117.49 42.0833 119.562 40.75C120.292 40.3021 120.849 40.0781 121.234 40.0781H122.406C123.75 40.7448 124.422 41.6979 124.422 42.9375C124.661 42.9375 124.828 43.4375 124.922 44.4375V45.2812H125.25C126.083 43.0833 127.37 41.5156 129.109 40.5781H129.953C132.297 40.5781 133.469 45.1042 133.469 54.1562C133.302 54.6042 133.135 54.8281 132.969 54.8281H132.297C131.63 54.8281 131.297 52.3177 131.297 47.2969C130.818 44.0469 130.312 42.4219 129.781 42.4219H129.453C127.661 44.1198 126.651 45.9115 126.422 47.7969C125.943 51.3073 125.385 53.0938 124.75 53.1562H124.078C123.922 53.1562 123.755 52.9896 123.578 52.6562C123.578 52.4167 123.635 51.8021 123.75 50.8125C123.271 44.8854 122.656 41.9219 121.906 41.9219H121.562C120.365 41.9219 119.083 43.151 117.719 45.6094C116.594 48.224 116.031 50.6823 116.031 52.9844V54.3281C115.802 54.776 115.526 55 115.203 55C114.422 54.8438 114.031 54.6198 114.031 54.3281V53.4844L113.359 46.7812V41.9219C113.359 41.526 113.302 41.026 113.188 40.4219C113.406 39.9115 113.63 39.6302 113.859 39.5781ZM136.656 39.4688H137.109C137.203 39.4688 137.453 39.7188 137.859 40.2188C137.755 41.5729 137.703 42.5781 137.703 43.2344V45.3438C137.734 45.5417 137.833 45.6406 138 45.6406H138.156C139.365 44.9427 140.62 44.5938 141.922 44.5938H143.141C145.036 45.2083 146.391 46.2656 147.203 47.7656C147.505 48.1302 147.656 48.4792 147.656 48.8125V49.875C147.656 51.4688 146.401 52.974 143.891 54.3906C143.068 54.7969 142.365 55 141.781 55C140.708 55.2917 139.651 55.2917 138.609 55C136.703 53.9688 135.75 52.1094 135.75 49.4219C135.844 49.0677 135.891 48.8646 135.891 48.8125L135.594 45.3438C135.792 42.6146 135.891 40.8542 135.891 40.0625L136.656 39.4688ZM150.219 39.4688H150.828C151.443 39.4688 151.797 41.3281 151.891 45.0469C151.984 45.7865 152.083 47.1927 152.188 49.2656C151.781 52.4844 151.328 54.0938 150.828 54.0938L150.078 54.25C149.776 54.25 149.526 53.7448 149.328 52.7344C149.526 52.7344 149.776 50.974 150.078 47.4531L149.625 40.2188C149.823 39.7604 150.021 39.5104 150.219 39.4688ZM137.859 48.3594V51.2344C137.859 52.0677 138.411 52.6667 139.516 53.0312C143.161 52.8229 145.073 52.0208 145.25 50.625C145.448 50.2917 145.547 49.9896 145.547 49.7188V49.2656C145.547 48.026 144.339 47.1198 141.922 46.5469C140.568 46.5469 139.214 47.151 137.859 48.3594ZM167.578 39.3906C168.505 39.276 169.49 39.276 170.531 39.3906C173.281 40.1302 174.656 41.2083 174.656 42.625V43.0625C174.635 43.875 174.094 44.8594 173.031 46.0156C173.031 46.1094 173.083 46.1562 173.188 46.1562C174.656 47.1875 175.391 48.2188 175.391 49.25V50.1406C175.391 52.7552 173.427 54.276 169.5 54.7031C169.5 54.8281 168.714 54.9271 167.141 55C164.339 55 162.719 54.2135 162.281 52.6406C162.469 52.1927 162.667 51.9479 162.875 51.9062H163.453C164.526 52.3958 165.12 52.6406 165.234 52.6406H168.328C171.661 52.3281 173.328 51.4948 173.328 50.1406V48.9531C172.641 47.776 171.464 47.1875 169.797 47.1875H167.578C167.443 47.1875 167.297 47.0417 167.141 46.75C167.016 46.5104 167.016 46.2656 167.141 46.0156C167.557 45.5781 168.688 45.1875 170.531 44.8438L172.438 43.8125L172.734 43.2188C172.734 42.6042 171.755 42.0625 169.797 41.5938H168.469C166.146 41.9896 164.573 42.3854 163.75 42.7812H163.453C162.953 42.7812 162.661 42.6302 162.578 42.3281V41.4531C163.047 40.7344 164.177 40.1458 165.969 39.6875C166.438 39.5833 166.974 39.4844 167.578 39.3906ZM180.141 39.4375C180.703 39.125 181.557 39.0833 182.703 39.3125C184.891 39.6042 186.677 41.0833 188.062 43.75C189.083 45.6562 189.76 47.7448 190.094 50.0156C189.74 51.8073 188.26 53.4115 185.656 54.8281C184.396 55.0677 183.292 55.0677 182.344 54.8281C180.125 53.7865 178.958 52.5677 178.844 51.1719C178.792 50.5469 178.849 49.9792 179.016 49.4688C179.568 47.6875 180.552 46.3958 181.969 45.5938C182.76 45.2188 183.365 45.0052 183.781 44.9531C184.417 44.8698 185.104 44.8958 185.844 45.0312C186.229 45.1458 186.677 45.2708 187.188 45.4062L187.141 45.7812V45.4062C185.891 42.4479 184.411 40.9688 182.703 40.9688H181.234C179.766 41.6354 178.896 41.9479 178.625 41.9062C178.146 41.9583 177.906 41.8958 177.906 41.7188V41.3438C177.906 40.5625 178.651 39.9271 180.141 39.4375ZM180.859 49.4688C180.432 50.1562 180.401 50.875 180.766 51.625C180.953 52.1458 181.906 52.7188 183.625 53.3438C185.031 53.3438 186.385 52.3594 187.688 50.3906C187.812 50.1823 187.875 49.875 187.875 49.4688C187.625 48.1354 186.703 47.2708 185.109 46.875H184.547C183.193 46.875 181.964 47.7396 180.859 49.4688ZM198.141 39.3594H199.266C200.38 39.4115 201.693 40.1094 203.203 41.4531C204.151 42.4115 204.943 44.099 205.578 46.5156L205.719 47.2188C205.719 49.2083 204.646 50.8906 202.5 52.2656C201.469 52.6406 200.672 52.8281 200.109 52.8281H197.438L194.219 51.7031H193.938C194.031 54.651 194.266 57.4115 194.641 59.9844C194.401 60.8281 194.026 61.25 193.516 61.25C192.859 61.25 192.531 60.125 192.531 57.875C192.344 57.375 192.156 54.7552 191.969 50.0156C191.969 43.9115 193.792 40.4062 197.438 39.5C197.594 39.4062 197.828 39.3594 198.141 39.3594ZM193.938 48.6094V49.0312C193.938 49.5625 195.292 50.1719 198 50.8594C198.125 50.8594 198.594 50.9062 199.406 51C202.125 50.5312 203.484 49.6875 203.484 48.4688C203.672 48.4688 203.766 48.2396 203.766 47.7812V46.7969C203.411 44.974 202.615 43.474 201.375 42.2969C200.271 41.5469 199.38 41.1719 198.703 41.1719C196.37 41.7969 195.203 42.5469 195.203 43.4219C194.359 44.5365 193.938 46.2656 193.938 48.6094ZM209.828 39.4375C210.391 39.125 211.245 39.0833 212.391 39.3125C214.578 39.6042 216.365 41.0833 217.75 43.75C218.771 45.6562 219.448 47.7448 219.781 50.0156C219.427 51.8073 217.948 53.4115 215.344 54.8281C214.083 55.0677 212.979 55.0677 212.031 54.8281C209.812 53.7865 208.646 52.5677 208.531 51.1719C208.479 50.5469 208.536 49.9792 208.703 49.4688C209.255 47.6875 210.24 46.3958 211.656 45.5938C212.448 45.2188 213.052 45.0052 213.469 44.9531C214.104 44.8698 214.792 44.8958 215.531 45.0312C215.917 45.1458 216.365 45.2708 216.875 45.4062L216.828 45.7812V45.4062C215.578 42.4479 214.099 40.9688 212.391 40.9688H210.922C209.453 41.6354 208.583 41.9479 208.312 41.9062C207.833 41.9583 207.594 41.8958 207.594 41.7188V41.3438C207.594 40.5625 208.339 39.9271 209.828 39.4375ZM210.547 49.4688C210.12 50.1562 210.089 50.875 210.453 51.625C210.641 52.1458 211.594 52.7188 213.312 53.3438C214.719 53.3438 216.073 52.3594 217.375 50.3906C217.5 50.1823 217.562 49.875 217.562 49.4688C217.312 48.1354 216.391 47.2708 214.797 46.875H214.234C212.88 46.875 211.651 47.7396 210.547 49.4688ZM225.141 36.3281H232.297C232.443 36.3281 232.661 36.6042 232.953 37.1562C232.568 37.7083 232.016 37.9844 231.297 37.9844H228.797L227.641 37.8125L227.469 38.1562C230.781 42.0312 232.557 45.2448 232.797 47.7969C232.818 47.8177 232.823 47.8958 232.812 48.0312L232.781 49.4375C232.646 51.0625 231.76 52.5625 230.125 53.9375L228.141 54.9375C227.755 55.0208 227.365 55.0208 226.969 54.9375C225.323 54.1354 224.125 53.349 223.375 52.5781C222.333 51.4219 221.76 50.1562 221.656 48.7812V47.625C222.208 45.8333 223.203 44.3906 224.641 43.2969C225.88 42.526 226.938 42.0833 227.812 41.9688L228.172 41.9531C228.359 41.9635 228.516 41.9688 228.641 41.9688C225.974 38.9896 224.641 37.276 224.641 36.8281C224.641 36.6615 224.807 36.4948 225.141 36.3281ZM223.484 48.125V48.2969C223.484 50.5469 224.594 52.2083 226.812 53.2812H228.141C230.026 52.1042 230.969 50.8854 230.969 49.625V48.625C230.521 46.3958 229.854 44.901 228.969 44.1406L228.469 43.7969H227.312C224.76 45.1406 223.484 46.5833 223.484 48.125ZM243.109 39.4531C247.339 40.1198 249.453 42.5833 249.453 46.8438V47C249.453 50.5938 247.943 53.1094 244.922 54.5469C243.964 54.849 243.359 55 243.109 55C240.328 55 238.417 54.0417 237.375 52.125C236.271 51.1667 235.719 49.3594 235.719 46.7031C235.917 45.2344 236.469 43.776 237.375 42.3281C238.823 40.4115 240.734 39.4531 243.109 39.4531ZM237.688 46.8438C237.688 49.6979 238.589 51.6094 240.391 52.5781L240.703 52.4375C240.953 52.4375 241.557 52.5885 242.516 52.8906H243.422C246.13 52.3594 247.484 50.5469 247.484 47.4531V47C247.484 44.2083 246.63 42.5 244.922 41.875C244.536 41.5729 244.083 41.4219 243.562 41.4219H242.062C241.229 41.4219 240.224 41.974 239.047 43.0781C238.141 44.6094 237.688 45.8646 237.688 46.8438ZM252.266 39.5781H252.766C252.932 39.5781 253.214 39.9115 253.609 40.5781V45.9531C253.641 46.1719 253.75 46.2812 253.938 46.2812C254.552 43.9271 255.896 42.0833 257.969 40.75C258.698 40.3021 259.255 40.0781 259.641 40.0781H260.812C262.156 40.7448 262.828 41.6979 262.828 42.9375C263.068 42.9375 263.234 43.4375 263.328 44.4375V45.2812H263.656C264.49 43.0833 265.776 41.5156 267.516 40.5781H268.359C270.703 40.5781 271.875 45.1042 271.875 54.1562C271.708 54.6042 271.542 54.8281 271.375 54.8281H270.703C270.036 54.8281 269.703 52.3177 269.703 47.2969C269.224 44.0469 268.719 42.4219 268.188 42.4219H267.859C266.068 44.1198 265.057 45.9115 264.828 47.7969C264.349 51.3073 263.792 53.0938 263.156 53.1562H262.484C262.328 53.1562 262.161 52.9896 261.984 52.6562C261.984 52.4167 262.042 51.8021 262.156 50.8125C261.677 44.8854 261.062 41.9219 260.312 41.9219H259.969C258.771 41.9219 257.49 43.151 256.125 45.6094C255 48.224 254.438 50.6823 254.438 52.9844V54.3281C254.208 54.776 253.932 55 253.609 55C252.828 54.8438 252.438 54.6198 252.438 54.3281V53.4844L251.766 46.7812V41.9219C251.766 41.526 251.708 41.026 251.594 40.4219C251.812 39.9115 252.036 39.6302 252.266 39.5781ZM276.234 39.4375C276.797 39.125 277.651 39.0833 278.797 39.3125C280.984 39.6042 282.771 41.0833 284.156 43.75C285.177 45.6562 285.854 47.7448 286.188 50.0156C285.833 51.8073 284.354 53.4115 281.75 54.8281C280.49 55.0677 279.385 55.0677 278.438 54.8281C276.219 53.7865 275.052 52.5677 274.938 51.1719C274.885 50.5469 274.943 49.9792 275.109 49.4688C275.661 47.6875 276.646 46.3958 278.062 45.5938C278.854 45.2188 279.458 45.0052 279.875 44.9531C280.51 44.8698 281.198 44.8958 281.938 45.0312C282.323 45.1458 282.771 45.2708 283.281 45.4062L283.234 45.7812V45.4062C281.984 42.4479 280.505 40.9688 278.797 40.9688H277.328C275.859 41.6354 274.99 41.9479 274.719 41.9062C274.24 41.9583 274 41.8958 274 41.7188V41.3438C274 40.5625 274.745 39.9271 276.234 39.4375ZM276.953 49.4688C276.526 50.1562 276.495 50.875 276.859 51.625C277.047 52.1458 278 52.7188 279.719 53.3438C281.125 53.3438 282.479 52.3594 283.781 50.3906C283.906 50.1823 283.969 49.875 283.969 49.4688C283.719 48.1354 282.797 47.2708 281.203 46.875H280.641C279.286 46.875 278.057 47.7396 276.953 49.4688ZM293.672 39.6406H294.406C296.219 40.9427 297.5 42.8646 298.25 45.4062C299.292 47.1146 300.177 49.1302 300.906 51.4531C301.208 52.151 301.505 52.6458 301.797 52.9375V53.5156C301.745 53.7552 301.401 54.0052 300.766 54.2656C300.109 54.2656 299.422 53.0312 298.703 50.5625C296.953 46.7292 295.521 43.875 294.406 42C293.76 42.1667 292.927 44.3333 291.906 48.5L289.984 54.2656C289.536 54.7552 289.24 55 289.094 55C288.406 54.7604 288.062 54.4167 288.062 53.9688C290.156 46.7604 291.729 42.2292 292.781 40.375L293.672 39.6406ZM5.75 71.4219H6.40625C7.88542 71.526 9.57812 72.9479 11.4844 75.6875L11.6562 76.5156C11.6562 77.0885 11.599 78.0156 11.4844 79.2969L11.8125 83.5625C12.625 83.5625 13.0625 83.7292 13.125 84.0625V84.2188C13.125 84.3021 12.7448 84.6875 11.9844 85.375V86.3594C11.9844 89.9115 10.8906 92.0417 8.70312 92.75C7.90104 92.8438 7.35417 93.0104 7.0625 93.25H6.23438C5.14062 92.8958 4.15625 92.5104 3.28125 92.0938C1.75 90.8854 0.984375 89.7917 0.984375 88.8125V88.6562C0.984375 87.2292 3.60938 85.9167 8.85938 84.7188C8.85938 84.5625 9.29688 84.3438 10.1719 84.0625C10.0885 82.9688 9.92708 82.4219 9.6875 82.4219C8.77083 83.8385 7.23958 84.5469 5.09375 84.5469C2.67708 84.5469 1.03646 82.9635 0.171875 79.7969L0 79.4688V78.9688C0.1875 78.7188 0.40625 77.901 0.65625 76.5156C1.53125 74.0156 2.73438 72.4844 4.26562 71.9219C4.68229 71.5885 5.17708 71.4219 5.75 71.4219ZM1.96875 79.2969C1.96875 80.776 2.90104 81.8698 4.76562 82.5781H5.90625C7.42708 82.5781 8.63021 81.375 9.51562 78.9688L9.6875 77.9844V77.3281C9 75.1719 8.45312 74.026 8.04688 73.8906C7.27604 73.5573 6.40104 73.3385 5.42188 73.2344C3.86979 73.2344 2.77604 74.875 2.14062 78.1562L1.96875 79.2969ZM2.95312 88.8125C3.36979 90.4583 4.52083 91.2812 6.40625 91.2812C8.8125 91.2812 10.0156 90.0781 10.0156 87.6719C10.1198 86.7135 10.1719 86.1667 10.1719 86.0312L9.84375 85.8594C5.42708 87.276 3.13021 88.2604 2.95312 88.8125ZM21.2969 71.4688C21.8073 71.4062 22.3802 71.4062 23.0156 71.4688C24.7552 71.6042 26.026 72.4167 26.8281 73.9062C26.9948 74.1667 27.1302 74.4792 27.2344 74.8438C27.3073 75.2708 27.3073 75.6771 27.2344 76.0625C27.2969 76.9792 26.9219 77.6875 26.1094 78.1875C24.974 78.6562 23.8646 78.8854 22.7812 78.875L18.3281 78.8906L17.6562 79.0312C17.6562 82.5 18.7344 84.5052 20.8906 85.0469C21.4323 85.1823 21.9271 85.25 22.375 85.25C22.6667 85.25 22.9323 85.2083 23.1719 85.125C24.474 84.4271 25.3229 83.5 25.7188 82.3438C25.7396 82.2812 25.7604 82.2188 25.7812 82.1562C25.8854 81.9896 26.0573 81.8958 26.2969 81.875C26.776 81.875 27.0885 82.0521 27.2344 82.4062C27.3385 82.7083 27.3385 83.026 27.2344 83.3594C27.0052 84.2344 26.5573 85.0417 25.8906 85.7812C25.5365 86.1354 24.9062 86.5417 24 87C22.8854 87.3021 21.8021 87.3021 20.75 87C19.9896 86.7708 19.3177 86.4115 18.7344 85.9219C16.8385 84.5677 15.8906 82.7656 15.8906 80.5156C15.849 80.401 15.8281 80.2708 15.8281 80.125L15.875 79.2031C15.8646 78.2656 16.1406 76.9479 16.7031 75.25C17.099 74.1979 17.6875 73.3854 18.4688 72.8125C19.375 72.0417 20.3177 71.5938 21.2969 71.4688ZM18.0625 76.875L18.3281 77H21.2969C23.9115 76.7292 25.2188 76.2344 25.2188 75.5156V75.25C25.1042 73.8958 24.4688 73.151 23.3125 73.0156C22.8542 72.8698 22.3646 72.849 21.8438 72.9531C20.9375 72.9948 19.9896 73.5781 19 74.7031L18.0625 76.875ZM39.5312 71.1562C40.3542 71.1562 40.7656 72.6615 40.7656 75.6719C40.7656 76.1615 40.974 79.724 41.3906 86.3594C41.1823 86.9115 40.974 87.1875 40.7656 87.1875H40.3594C40.1615 87.1875 39.9531 86.9844 39.7344 86.5781C39.6406 81.9115 39.5052 79.5781 39.3281 79.5781C39.0885 79.4427 38.8177 79.375 38.5156 79.375H30.9062C30.6667 79.375 30.3229 81.3646 29.875 85.3438C29.5312 85.6146 29.3281 85.75 29.2656 85.75H29.0469L28.4375 85.3438C28.8438 82.375 29.0469 78.6719 29.0469 74.2344C29.0469 74.0156 28.9792 73.1927 28.8438 71.7656L29.4688 71.3594H29.875C30.2917 71.4427 30.5 71.9896 30.5 73V77.5312C30.5417 77.8021 30.6771 77.9375 30.9062 77.9375H39.125V77.7344C39.125 77.1198 39.0573 75.0625 38.9219 71.5625L39.5312 71.1562ZM49.7344 71.4688C50.2448 71.4062 50.8177 71.4062 51.4531 71.4688C53.1927 71.6042 54.4635 72.4167 55.2656 73.9062C55.4323 74.1667 55.5677 74.4792 55.6719 74.8438C55.7448 75.2708 55.7448 75.6771 55.6719 76.0625C55.7344 76.9792 55.3594 77.6875 54.5469 78.1875C53.4115 78.6562 52.3021 78.8854 51.2188 78.875L46.7656 78.8906L46.0938 79.0312C46.0938 82.5 47.1719 84.5052 49.3281 85.0469C49.8698 85.1823 50.3646 85.25 50.8125 85.25C51.1042 85.25 51.3698 85.2083 51.6094 85.125C52.9115 84.4271 53.7604 83.5 54.1562 82.3438C54.1771 82.2812 54.1979 82.2188 54.2188 82.1562C54.3229 81.9896 54.4948 81.8958 54.7344 81.875C55.2135 81.875 55.526 82.0521 55.6719 82.4062C55.776 82.7083 55.776 83.026 55.6719 83.3594C55.4427 84.2344 54.9948 85.0417 54.3281 85.7812C53.974 86.1354 53.3438 86.5417 52.4375 87C51.3229 87.3021 50.2396 87.3021 49.1875 87C48.4271 86.7708 47.7552 86.4115 47.1719 85.9219C45.276 84.5677 44.3281 82.7656 44.3281 80.5156C44.2865 80.401 44.2656 80.2708 44.2656 80.125L44.3125 79.2031C44.3021 78.2656 44.5781 76.9479 45.1406 75.25C45.5365 74.1979 46.125 73.3854 46.9062 72.8125C47.8125 72.0417 48.7552 71.5938 49.7344 71.4688ZM46.5 76.875L46.7656 77H49.7344C52.349 76.7292 53.6562 76.2344 53.6562 75.5156V75.25C53.5417 73.8958 52.9062 73.151 51.75 73.0156C51.2917 72.8698 50.8021 72.849 50.2812 72.9531C49.375 72.9948 48.4271 73.5781 47.4375 74.7031L46.5 76.875ZM62.7344 71.2969C63.4323 71.0885 64.2656 71.0625 65.2344 71.2188C65.8177 71.2604 66.3854 71.5 66.9375 71.9375C67.875 72.6771 68.526 73.5365 68.8906 74.5156C68.9115 74.7344 68.8854 74.9323 68.8125 75.1094C68.5417 76.0573 67.8698 76.849 66.7969 77.4844C63.5365 78.901 61.7812 79.6094 61.5312 79.6094C60.3854 80.2552 59.6302 81.1562 59.2656 82.3125V82.4531C59.2656 83.974 60.5417 84.7812 63.0938 84.875H63.2344C64.849 84.875 66.8385 83.974 69.2031 82.1719C69.5573 81.8802 69.8906 81.7344 70.2031 81.7344H70.3438C70.7188 81.7552 71.0052 81.9948 71.2031 82.4531C71.2865 82.7552 71.2865 83.0365 71.2031 83.2969C68.3281 85.7656 65.625 87 63.0938 87C60.1667 87 58.1302 85.8646 56.9844 83.5938C56.8385 82.8333 56.8385 82.0729 56.9844 81.3125C57.5781 80.1667 58.4792 79.1719 59.6875 78.3281C60.8854 77.6615 62.7344 76.9062 65.2344 76.0625C66.026 75.8333 66.4531 75.4062 66.5156 74.7812C66.3177 73.7396 65.4167 73.2188 63.8125 73.2188C62.875 73.2188 61.4062 73.6927 59.4062 74.6406H58.6875C58.6875 74.5885 58.5 74.349 58.125 73.9219V73.5C58.125 72.875 59.5 72.1667 62.25 71.375C62.3542 71.3229 62.5156 71.2969 62.7344 71.2969ZM83.9219 68.3281H91.0781C91.224 68.3281 91.4427 68.6042 91.7344 69.1562C91.349 69.7083 90.7969 69.9844 90.0781 69.9844H87.5781L86.4219 69.8125L86.25 70.1562C89.5625 74.0312 91.3385 77.2448 91.5781 79.7969C91.599 79.8177 91.6042 79.8958 91.5938 80.0312L91.5625 81.4375C91.4271 83.0625 90.5417 84.5625 88.9062 85.9375L86.9219 86.9375C86.5365 87.0208 86.1458 87.0208 85.75 86.9375C84.1042 86.1354 82.9062 85.349 82.1562 84.5781C81.1146 83.4219 80.5417 82.1562 80.4375 80.7812V79.625C80.9896 77.8333 81.9844 76.3906 83.4219 75.2969C84.6615 74.526 85.7188 74.0833 86.5938 73.9688L86.9531 73.9531C87.1406 73.9635 87.2969 73.9688 87.4219 73.9688C84.7552 70.9896 83.4219 69.276 83.4219 68.8281C83.4219 68.6615 83.5885 68.4948 83.9219 68.3281ZM82.2656 80.125V80.2969C82.2656 82.5469 83.375 84.2083 85.5938 85.2812H86.9219C88.8073 84.1042 89.75 82.8854 89.75 81.625V80.625C89.3021 78.3958 88.6354 76.901 87.75 76.1406L87.25 75.7969H86.0938C83.5417 77.1406 82.2656 78.5833 82.2656 80.125ZM101.891 71.4531C106.12 72.1198 108.234 74.5833 108.234 78.8438V79C108.234 82.5938 106.724 85.1094 103.703 86.5469C102.745 86.849 102.141 87 101.891 87C99.1094 87 97.1979 86.0417 96.1562 84.125C95.0521 83.1667 94.5 81.3594 94.5 78.7031C94.6979 77.2344 95.25 75.776 96.1562 74.3281C97.6042 72.4115 99.5156 71.4531 101.891 71.4531ZM96.4688 78.8438C96.4688 81.6979 97.3698 83.6094 99.1719 84.5781L99.4844 84.4375C99.7344 84.4375 100.339 84.5885 101.297 84.8906H102.203C104.911 84.3594 106.266 82.5469 106.266 79.4531V79C106.266 76.2083 105.411 74.5 103.703 73.875C103.318 73.5729 102.865 73.4219 102.344 73.4219H100.844C100.01 73.4219 99.0052 73.974 97.8281 75.0781C96.9219 76.6094 96.4688 77.8646 96.4688 78.8438ZM115.734 71.6406H116.469C118.281 72.9427 119.562 74.8646 120.312 77.4062C121.354 79.1146 122.24 81.1302 122.969 83.4531C123.271 84.151 123.568 84.6458 123.859 84.9375V85.5156C123.807 85.7552 123.464 86.0052 122.828 86.2656C122.172 86.2656 121.484 85.0312 120.766 82.5625C119.016 78.7292 117.583 75.875 116.469 74C115.823 74.1667 114.99 76.3333 113.969 80.5L112.047 86.2656C111.599 86.7552 111.302 87 111.156 87C110.469 86.7604 110.125 86.4167 110.125 85.9688C112.219 78.7604 113.792 74.2292 114.844 72.375L115.734 71.6406ZM126.484 71.4688H127.531C127.802 71.6042 127.938 71.8125 127.938 72.0938C127.875 74.6771 127.844 76.3802 127.844 77.2031C127.885 77.5573 127.99 77.7344 128.156 77.7344H128.25C128.531 77.4531 129.542 77.1042 131.281 76.6875H134.203C136.641 77.4583 137.859 78.7448 137.859 80.5469C137.859 81.9219 136.745 83.4531 134.516 85.1406C132.578 86.2552 131.255 86.8125 130.547 86.8125H129.094C128.229 86.8125 127.391 86.0104 126.578 84.4062C126.161 83.2292 125.953 82.3594 125.953 81.7969C125.953 80.5156 125.885 78.8802 125.75 76.8906C125.75 73.276 125.995 71.4688 126.484 71.4688ZM127.938 80.6562C127.938 83.3438 128.568 84.7708 129.828 84.9375C131.172 84.8542 132.734 84.0885 134.516 82.6406C135.214 82.1198 135.562 81.3542 135.562 80.3438C135.562 79.4583 134.589 78.901 132.641 78.6719C130.943 78.6719 129.448 79.2292 128.156 80.3438C128.083 80.5521 128.01 80.6562 127.938 80.6562ZM140.344 71.2812H140.875C141.292 71.5 141.583 71.8542 141.75 72.3438L141.578 73.9219C141.984 79.8802 142.625 83.224 143.5 83.9531C143.5 84.1094 143.797 84.401 144.391 84.8281H144.734C146.089 84.8281 146.969 83.7135 147.375 81.4844V77.2656C147.49 74.5052 147.844 72.9792 148.438 72.6875H148.953C149.589 72.6875 149.943 73.6823 150.016 75.6719C150.016 77.4635 149.839 79.2865 149.484 81.1406V81.8438C149.755 83.5938 150.578 84.4688 151.953 84.4688C153.599 84.4688 154.536 83.2969 154.766 80.9531C155.172 74.5052 155.641 71.2812 156.172 71.2812H156.875C157.042 71.2812 157.219 71.4583 157.406 71.8125V72.5156C157.406 74.9323 157.172 78.0417 156.703 81.8438C156.703 82.7604 157.641 84.3438 159.516 86.5938C159.359 87.0729 159.068 87.4219 158.641 87.6406C158.026 87.6406 157.026 86.7604 155.641 85C154.62 86.2917 153.74 86.9375 153 86.9375H151.078C150.474 86.9375 149.531 86.2917 148.25 85C147.708 85.8229 147.005 86.4688 146.141 86.9375H144.031C141.844 86.9375 140.495 83.9479 139.984 77.9688C139.984 77.2917 139.927 75.8229 139.812 73.5625C139.896 72.0417 140.073 71.2812 140.344 71.2812ZM165.797 71.4688C166.307 71.4062 166.88 71.4062 167.516 71.4688C169.255 71.6042 170.526 72.4167 171.328 73.9062C171.495 74.1667 171.63 74.4792 171.734 74.8438C171.807 75.2708 171.807 75.6771 171.734 76.0625C171.797 76.9792 171.422 77.6875 170.609 78.1875C169.474 78.6562 168.365 78.8854 167.281 78.875L162.828 78.8906L162.156 79.0312C162.156 82.5 163.234 84.5052 165.391 85.0469C165.932 85.1823 166.427 85.25 166.875 85.25C167.167 85.25 167.432 85.2083 167.672 85.125C168.974 84.4271 169.823 83.5 170.219 82.3438C170.24 82.2812 170.26 82.2188 170.281 82.1562C170.385 81.9896 170.557 81.8958 170.797 81.875C171.276 81.875 171.589 82.0521 171.734 82.4062C171.839 82.7083 171.839 83.026 171.734 83.3594C171.505 84.2344 171.057 85.0417 170.391 85.7812C170.036 86.1354 169.406 86.5417 168.5 87C167.385 87.3021 166.302 87.3021 165.25 87C164.49 86.7708 163.818 86.4115 163.234 85.9219C161.339 84.5677 160.391 82.7656 160.391 80.5156C160.349 80.401 160.328 80.2708 160.328 80.125L160.375 79.2031C160.365 78.2656 160.641 76.9479 161.203 75.25C161.599 74.1979 162.188 73.3854 162.969 72.8125C163.875 72.0417 164.818 71.5938 165.797 71.4688ZM162.562 76.875L162.828 77H165.797C168.411 76.7292 169.719 76.2344 169.719 75.5156V75.25C169.604 73.8958 168.969 73.151 167.812 73.0156C167.354 72.8698 166.865 72.849 166.344 72.9531C165.438 72.9948 164.49 73.5781 163.5 74.7031L162.562 76.875ZM8.54688 103.109C8.75521 103.036 8.97396 103.036 9.20312 103.109C9.56771 103.214 9.85938 103.578 10.0781 104.203C10.0781 104.432 10.0417 105.125 9.96875 106.281C9.96875 109.354 10.151 111.182 10.5156 111.766C10.5156 111.964 10.3698 112.328 10.0781 112.859C10.3698 114.318 10.5156 115.818 10.5156 117.359V118.016C10.5156 118.411 10.2969 118.74 9.85938 119H9.20312C8.91146 118.865 8.61979 118.464 8.32812 117.797C8.32812 117.432 8.36458 116.995 8.4375 116.484C8.36458 115.37 8.32812 114.344 8.32812 113.406C8.32812 113.333 8.36458 113.224 8.4375 113.078C8.36458 112.786 8.14583 112.641 7.78125 112.641H7.34375C4.42708 112.641 2.16146 111.365 0.546875 108.812C0.296875 108.5 0.114583 108.099 0 107.609V105.625C0.239583 104.604 0.567708 104.094 0.984375 104.094C1.64062 104.094 1.96875 104.385 1.96875 104.969V107.281C2.27083 108.375 2.92708 109.214 3.9375 109.797C5.20833 110.38 6.27083 110.672 7.125 110.672H7.89062L8.21875 110.453C8.07292 109.234 8 107.188 8 104.312V103.984C8 103.589 8.18229 103.297 8.54688 103.109ZM18.4844 103.469C18.9948 103.406 19.5677 103.406 20.2031 103.469C21.9427 103.604 23.2135 104.417 24.0156 105.906C24.1823 106.167 24.3177 106.479 24.4219 106.844C24.4948 107.271 24.4948 107.677 24.4219 108.062C24.4844 108.979 24.1094 109.688 23.2969 110.188C22.1615 110.656 21.0521 110.885 19.9688 110.875L15.5156 110.891L14.8438 111.031C14.8438 114.5 15.9219 116.505 18.0781 117.047C18.6198 117.182 19.1146 117.25 19.5625 117.25C19.8542 117.25 20.1198 117.208 20.3594 117.125C21.6615 116.427 22.5104 115.5 22.9062 114.344C22.9271 114.281 22.9479 114.219 22.9688 114.156C23.0729 113.99 23.2448 113.896 23.4844 113.875C23.9635 113.875 24.276 114.052 24.4219 114.406C24.526 114.708 24.526 115.026 24.4219 115.359C24.1927 116.234 23.7448 117.042 23.0781 117.781C22.724 118.135 22.0938 118.542 21.1875 119C20.0729 119.302 18.9896 119.302 17.9375 119C17.1771 118.771 16.5052 118.411 15.9219 117.922C14.026 116.568 13.0781 114.766 13.0781 112.516C13.0365 112.401 13.0156 112.271 13.0156 112.125L13.0625 111.203C13.0521 110.266 13.3281 108.948 13.8906 107.25C14.2865 106.198 14.875 105.385 15.6562 104.812C16.5625 104.042 17.5052 103.594 18.4844 103.469ZM15.25 108.875L15.5156 109H18.4844C21.099 108.729 22.4062 108.234 22.4062 107.516V107.25C22.2917 105.896 21.6562 105.151 20.5 105.016C20.0417 104.87 19.5521 104.849 19.0312 104.953C18.125 104.995 17.1771 105.578 16.1875 106.703L15.25 108.875ZM29.8906 103.328H30.2188C30.9271 103.62 31.8385 105.552 32.9531 109.125C33.4115 110.208 33.6406 111 33.6406 111.5H33.9688C34.3125 110.646 35.1667 107.922 36.5312 103.328C36.9062 103.026 37.2448 103.026 37.5469 103.328C37.9323 103.63 38.5573 105.844 39.4219 109.969C40.3281 112.812 41.3542 115.427 42.5 117.812V118.484C42.5 118.651 42.3281 118.823 41.9844 119H41.6406C40.651 118.562 39.3438 115.781 37.7188 110.656C37.375 109.146 37.2031 108.349 37.2031 108.266H37.0469C35.9948 112.693 35.026 114.906 34.1406 114.906C33.3906 114.906 32.3698 113.031 31.0781 109.281H30.7344C29.7135 114.74 28.4062 117.469 26.8125 117.469H26.3125C26.1354 117.469 25.9062 117.24 25.625 116.781C25.625 116.167 25.9635 115.714 26.6406 115.422C28.349 112.891 29.2031 109.141 29.2031 104.172C29.4948 103.609 29.724 103.328 29.8906 103.328ZM52.7344 103.297H52.9844C54.026 103.297 54.5469 104.385 54.5469 106.562C54.5469 107.823 54.7083 108.99 55.0312 110.062V112L55.1562 112.594H55.2812C55.4375 112.594 55.5156 112.516 55.5156 112.359V110.547C57.4219 108.755 59.2344 106.781 60.9531 104.625H61.0781C61.7344 104.625 62.1771 105.068 62.4062 105.953V106.203L59.0156 111.141V111.391C59.3385 111.932 60.8698 113.625 63.6094 116.469L64.3281 117.422V118.031C64.1302 118.438 63.8125 118.641 63.375 118.641H63C59.7396 115.13 57.9688 113.234 57.6875 112.953H57.3281C56.5781 114.089 55.7708 114.656 54.9062 114.656C54.9062 114.812 54.8698 114.891 54.7969 114.891L54.9062 115.734V116.953C54.9062 118.318 54.4635 119 53.5781 119C53.099 118.51 52.8594 118.109 52.8594 117.797C52.8594 115.422 52.6979 110.75 52.375 103.781C52.5 103.458 52.6198 103.297 52.7344 103.297ZM73.7656 103.453C77.9948 104.12 80.1094 106.583 80.1094 110.844V111C80.1094 114.594 78.599 117.109 75.5781 118.547C74.6198 118.849 74.0156 119 73.7656 119C70.9844 119 69.0729 118.042 68.0312 116.125C66.9271 115.167 66.375 113.359 66.375 110.703C66.5729 109.234 67.125 107.776 68.0312 106.328C69.4792 104.411 71.3906 103.453 73.7656 103.453ZM68.3438 110.844C68.3438 113.698 69.2448 115.609 71.0469 116.578L71.3594 116.438C71.6094 116.438 72.2135 116.589 73.1719 116.891H74.0781C76.7865 116.359 78.1406 114.547 78.1406 111.453V111C78.1406 108.208 77.2865 106.5 75.5781 105.875C75.1927 105.573 74.7396 105.422 74.2188 105.422H72.7188C71.8854 105.422 70.8802 105.974 69.7031 107.078C68.7969 108.609 68.3438 109.865 68.3438 110.844ZM87.8594 103.297C88.5573 103.089 89.3906 103.062 90.3594 103.219C90.9427 103.26 91.5104 103.5 92.0625 103.938C93 104.677 93.651 105.536 94.0156 106.516C94.0365 106.734 94.0104 106.932 93.9375 107.109C93.6667 108.057 92.9948 108.849 91.9219 109.484C88.6615 110.901 86.9062 111.609 86.6562 111.609C85.5104 112.255 84.7552 113.156 84.3906 114.312V114.453C84.3906 115.974 85.6667 116.781 88.2188 116.875H88.3594C89.974 116.875 91.9635 115.974 94.3281 114.172C94.6823 113.88 95.0156 113.734 95.3281 113.734H95.4688C95.8438 113.755 96.1302 113.995 96.3281 114.453C96.4115 114.755 96.4115 115.036 96.3281 115.297C93.4531 117.766 90.75 119 88.2188 119C85.2917 119 83.2552 117.865 82.1094 115.594C81.9635 114.833 81.9635 114.073 82.1094 113.312C82.7031 112.167 83.6042 111.172 84.8125 110.328C86.0104 109.661 87.8594 108.906 90.3594 108.062C91.151 107.833 91.5781 107.406 91.6406 106.781C91.4427 105.74 90.5417 105.219 88.9375 105.219C88 105.219 86.5312 105.693 84.5312 106.641H83.8125C83.8125 106.589 83.625 106.349 83.25 105.922V105.5C83.25 104.875 84.625 104.167 87.375 103.375C87.4792 103.323 87.6406 103.297 87.8594 103.297ZM103.375 103.422H104.031C105.51 103.526 107.203 104.948 109.109 107.688L109.281 108.516C109.281 109.089 109.224 110.016 109.109 111.297L109.438 115.562C110.25 115.562 110.688 115.729 110.75 116.062V116.219C110.75 116.302 110.37 116.688 109.609 117.375V118.359C109.609 121.911 108.516 124.042 106.328 124.75C105.526 124.844 104.979 125.01 104.688 125.25H103.859C102.766 124.896 101.781 124.51 100.906 124.094C99.375 122.885 98.6094 121.792 98.6094 120.812V120.656C98.6094 119.229 101.234 117.917 106.484 116.719C106.484 116.562 106.922 116.344 107.797 116.062C107.714 114.969 107.552 114.422 107.312 114.422C106.396 115.839 104.865 116.547 102.719 116.547C100.302 116.547 98.6615 114.964 97.7969 111.797L97.625 111.469V110.969C97.8125 110.719 98.0312 109.901 98.2812 108.516C99.1562 106.016 100.359 104.484 101.891 103.922C102.307 103.589 102.802 103.422 103.375 103.422ZM99.5938 111.297C99.5938 112.776 100.526 113.87 102.391 114.578H103.531C105.052 114.578 106.255 113.375 107.141 110.969L107.312 109.984V109.328C106.625 107.172 106.078 106.026 105.672 105.891C104.901 105.557 104.026 105.339 103.047 105.234C101.495 105.234 100.401 106.875 99.7656 110.156L99.5938 111.297ZM100.578 120.812C100.995 122.458 102.146 123.281 104.031 123.281C106.438 123.281 107.641 122.078 107.641 119.672C107.745 118.714 107.797 118.167 107.797 118.031L107.469 117.859C103.052 119.276 100.755 120.26 100.578 120.812ZM115.484 103.438C116.047 103.125 116.901 103.083 118.047 103.312C120.234 103.604 122.021 105.083 123.406 107.75C124.427 109.656 125.104 111.745 125.438 114.016C125.083 115.807 123.604 117.411 121 118.828C119.74 119.068 118.635 119.068 117.688 118.828C115.469 117.786 114.302 116.568 114.188 115.172C114.135 114.547 114.193 113.979 114.359 113.469C114.911 111.688 115.896 110.396 117.312 109.594C118.104 109.219 118.708 109.005 119.125 108.953C119.76 108.87 120.448 108.896 121.188 109.031C121.573 109.146 122.021 109.271 122.531 109.406L122.484 109.781V109.406C121.234 106.448 119.755 104.969 118.047 104.969H116.578C115.109 105.635 114.24 105.948 113.969 105.906C113.49 105.958 113.25 105.896 113.25 105.719V105.344C113.25 104.562 113.995 103.927 115.484 103.438ZM116.203 113.469C115.776 114.156 115.745 114.875 116.109 115.625C116.297 116.146 117.25 116.719 118.969 117.344C120.375 117.344 121.729 116.359 123.031 114.391C123.156 114.182 123.219 113.875 123.219 113.469C122.969 112.135 122.047 111.271 120.453 110.875H119.891C118.536 110.875 117.307 111.74 116.203 113.469ZM132.234 110.422L135.875 110.781C135.979 110.781 136.099 110.958 136.234 111.312C136.151 111.729 136.031 111.938 135.875 111.938L132 112.047L128.719 112.297L128.453 111.938V111.406C128.672 110.99 129.932 110.661 132.234 110.422ZM143.391 103.641H144.125C145.938 104.943 147.219 106.865 147.969 109.406C149.01 111.115 149.896 113.13 150.625 115.453C150.927 116.151 151.224 116.646 151.516 116.938V117.516C151.464 117.755 151.12 118.005 150.484 118.266C149.828 118.266 149.141 117.031 148.422 114.562C146.672 110.729 145.24 107.875 144.125 106C143.479 106.167 142.646 108.333 141.625 112.5L139.703 118.266C139.255 118.755 138.958 119 138.812 119C138.125 118.76 137.781 118.417 137.781 117.969C139.875 110.76 141.448 106.229 142.5 104.375L143.391 103.641ZM154.781 103.547H155.375C155.885 103.849 156.141 104.203 156.141 104.609L155.375 110.688V112.047C156.365 115.391 157.531 117.062 158.875 117.062C161.208 116.427 162.375 115.464 162.375 114.172C162.646 114.172 162.948 111.339 163.281 105.672V104.453C163.281 104.047 163.484 103.745 163.891 103.547H164.641C164.786 103.547 165.042 103.797 165.406 104.297V108.859C165.406 111.953 165.76 114.432 166.469 116.297H166.781C167.292 115.891 167.594 115.688 167.688 115.688C168.396 115.688 168.75 116.042 168.75 116.75V117.219C167.844 118.333 167.031 118.891 166.312 118.891C165.479 118.891 164.771 118.078 164.188 116.453C163.938 116.255 163.786 116.156 163.734 116.156C162.88 118.177 161.411 119.188 159.328 119.188H159.172C157.63 119.188 156.01 117.922 154.312 115.391C153.708 113.755 153.406 112.385 153.406 111.281V109.609C153.75 105.568 154.208 103.547 154.781 103.547ZM174.078 100.328H181.234C181.38 100.328 181.599 100.604 181.891 101.156C181.505 101.708 180.953 101.984 180.234 101.984H177.734L176.578 101.812L176.406 102.156C179.719 106.031 181.495 109.245 181.734 111.797C181.755 111.818 181.76 111.896 181.75 112.031L181.719 113.438C181.583 115.062 180.698 116.562 179.062 117.938L177.078 118.938C176.693 119.021 176.302 119.021 175.906 118.938C174.26 118.135 173.062 117.349 172.312 116.578C171.271 115.422 170.698 114.156 170.594 112.781V111.625C171.146 109.833 172.141 108.391 173.578 107.297C174.818 106.526 175.875 106.083 176.75 105.969L177.109 105.953C177.297 105.964 177.453 105.969 177.578 105.969C174.911 102.99 173.578 101.276 173.578 100.828C173.578 100.661 173.745 100.495 174.078 100.328ZM172.422 112.125V112.297C172.422 114.547 173.531 116.208 175.75 117.281H177.078C178.964 116.104 179.906 114.885 179.906 113.625V112.625C179.458 110.396 178.792 108.901 177.906 108.141L177.406 107.797H176.25C173.698 109.141 172.422 110.583 172.422 112.125ZM192.047 103.453C196.276 104.12 198.391 106.583 198.391 110.844V111C198.391 114.594 196.88 117.109 193.859 118.547C192.901 118.849 192.297 119 192.047 119C189.266 119 187.354 118.042 186.312 116.125C185.208 115.167 184.656 113.359 184.656 110.703C184.854 109.234 185.406 107.776 186.312 106.328C187.76 104.411 189.672 103.453 192.047 103.453ZM186.625 110.844C186.625 113.698 187.526 115.609 189.328 116.578L189.641 116.438C189.891 116.438 190.495 116.589 191.453 116.891H192.359C195.068 116.359 196.422 114.547 196.422 111.453V111C196.422 108.208 195.568 106.5 193.859 105.875C193.474 105.573 193.021 105.422 192.5 105.422H191C190.167 105.422 189.161 105.974 187.984 107.078C187.078 108.609 186.625 109.865 186.625 110.844ZM204.844 96.3125H205.781L206.531 96.8906C206.406 100.474 206.344 103.182 206.344 105.016V110.719C206.344 112.531 205.656 113.438 204.281 113.438C203.76 113.302 203.38 113.062 203.141 112.719V112.578C203.516 111.672 203.703 111.099 203.703 110.859V104.453C203.703 102.943 203.766 100.469 203.891 97.0312C203.974 97.0312 204.292 96.7917 204.844 96.3125ZM204.078 116H204.844C205.719 116.469 206.156 116.995 206.156 117.578V117.719C206.156 117.958 205.531 118.385 204.281 119H203.891C203.141 118.656 202.766 118.083 202.766 117.281C202.766 116.76 203.203 116.333 204.078 116Z" fill="#F3F5F6"/>
</svg>
