<svg width="225" height="28" viewBox="0 0 225 28" fill="none" xmlns="http://www.w3.org/2000/svg">
<path d="M4.84375 0.171875H5.1875L5.51562 0.1875H8.79688C10.6927 0.5 12.2448 1.23958 13.4531 2.40625C14.4427 3.48958 14.9375 4.79688 14.9375 6.32812C14.9375 8.36979 13.9115 10.026 11.8594 11.2969C9.93229 12.2865 8.73438 12.7812 8.26562 12.7812C6.91146 13.1354 5.78125 13.3125 4.875 13.3125H4.5625C3.92708 13.3125 3.32292 13.2448 2.75 13.1094C2.61458 13.3906 2.51042 13.5312 2.4375 13.5312C2.64583 15.7812 2.82292 18.25 2.96875 20.9375C2.77083 21.6458 2.55729 22 2.32812 22H1.48438C1.05729 21.75 0.84375 21.4323 0.84375 21.0469C0.5625 16.7344 0.421875 14.0521 0.421875 13C0.213542 12.6354 0.109375 12.2812 0.109375 11.9375V11.8281C0.130208 11.3385 0.203125 11.0938 0.328125 11.0938C0.328125 10.9375 0.291667 10.5469 0.21875 9.92188C0.145833 5.61979 0.109375 2.86458 0.109375 1.65625C0.109375 1.05208 0.390625 0.5625 0.953125 0.1875H4.5625L4.84375 0.171875ZM2.125 2.40625C2.125 2.44792 2.16146 2.90625 2.23438 3.78125C2.29688 7.97917 2.32812 10.4167 2.32812 11.0938L2.65625 11.2969H6.25C7.57292 11.2969 9.41146 10.5938 11.7656 9.1875C12.4635 8.38542 12.8125 7.5 12.8125 6.53125C12.8125 4.6875 11.8594 3.45312 9.95312 2.82812C8.35938 2.47396 7.19792 2.29688 6.46875 2.29688H2.65625L2.125 2.40625ZM17.9688 6.4375C18.5312 6.125 19.3854 6.08333 20.5312 6.3125C22.7188 6.60417 24.5052 8.08333 25.8906 10.75C26.9115 12.6562 27.5885 14.7448 27.9219 17.0156C27.5677 18.8073 26.0885 20.4115 23.4844 21.8281C22.224 22.0677 21.1198 22.0677 20.1719 21.8281C17.9531 20.7865 16.7865 19.5677 16.6719 18.1719C16.6198 17.5469 16.6771 16.9792 16.8438 16.4688C17.3958 14.6875 18.3802 13.3958 19.7969 12.5938C20.5885 12.2188 21.1927 12.0052 21.6094 11.9531C22.2448 11.8698 22.9323 11.8958 23.6719 12.0312C24.0573 12.1458 24.5052 12.2708 25.0156 12.4062L24.9688 12.7812V12.4062C23.7188 9.44792 22.2396 7.96875 20.5312 7.96875H19.0625C17.5938 8.63542 16.724 8.94792 16.4531 8.90625C15.974 8.95833 15.7344 8.89583 15.7344 8.71875V8.34375C15.7344 7.5625 16.4792 6.92708 17.9688 6.4375ZM18.6875 16.4688C18.2604 17.1562 18.2292 17.875 18.5938 18.625C18.7812 19.1458 19.7344 19.7188 21.4531 20.3438C22.8594 20.3438 24.2135 19.3594 25.5156 17.3906C25.6406 17.1823 25.7031 16.875 25.7031 16.4688C25.4531 15.1354 24.5312 14.2708 22.9375 13.875H22.375C21.0208 13.875 19.7917 14.7396 18.6875 16.4688ZM33.2812 3.32812H40.4375C40.5833 3.32812 40.8021 3.60417 41.0938 4.15625C40.7083 4.70833 40.1562 4.98438 39.4375 4.98438H36.9375L35.7812 4.8125L35.6094 5.15625C38.9219 9.03125 40.6979 12.2448 40.9375 14.7969C40.9583 14.8177 40.9635 14.8958 40.9531 15.0312L40.9219 16.4375C40.7865 18.0625 39.901 19.5625 38.2656 20.9375L36.2812 21.9375C35.8958 22.0208 35.5052 22.0208 35.1094 21.9375C33.4635 21.1354 32.2656 20.349 31.5156 19.5781C30.474 18.4219 29.901 17.1562 29.7969 15.7812V14.625C30.349 12.8333 31.3438 11.3906 32.7812 10.2969C34.0208 9.52604 35.0781 9.08333 35.9531 8.96875L36.3125 8.95312C36.5 8.96354 36.6562 8.96875 36.7812 8.96875C34.1146 5.98958 32.7812 4.27604 32.7812 3.82812C32.7812 3.66146 32.9479 3.49479 33.2812 3.32812ZM31.625 15.125V15.2969C31.625 17.5469 32.7344 19.2083 34.9531 20.2812H36.2812C38.1667 19.1042 39.1094 17.8854 39.1094 16.625V15.625C38.6615 13.3958 37.9948 11.901 37.1094 11.1406L36.6094 10.7969H35.4531C32.901 12.1406 31.625 13.5833 31.625 15.125ZM51.25 6.45312C55.4792 7.11979 57.5938 9.58333 57.5938 13.8438V14C57.5938 17.5938 56.0833 20.1094 53.0625 21.5469C52.1042 21.849 51.5 22 51.25 22C48.4688 22 46.5573 21.0417 45.5156 19.125C44.4115 18.1667 43.8594 16.3594 43.8594 13.7031C44.0573 12.2344 44.6094 10.776 45.5156 9.32812C46.9635 7.41146 48.875 6.45312 51.25 6.45312ZM45.8281 13.8438C45.8281 16.6979 46.7292 18.6094 48.5312 19.5781L48.8438 19.4375C49.0938 19.4375 49.6979 19.5885 50.6562 19.8906H51.5625C54.2708 19.3594 55.625 17.5469 55.625 14.4531V14C55.625 11.2083 54.7708 9.5 53.0625 8.875C52.6771 8.57292 52.224 8.42188 51.7031 8.42188H50.2031C49.3698 8.42188 48.3646 8.97396 47.1875 10.0781C46.2812 11.6094 45.8281 12.8646 45.8281 13.8438ZM60.4062 6.57812H60.9062C61.0729 6.57812 61.3542 6.91146 61.75 7.57812V12.9531C61.7812 13.1719 61.8906 13.2812 62.0781 13.2812C62.6927 10.9271 64.0365 9.08333 66.1094 7.75C66.8385 7.30208 67.3958 7.07812 67.7812 7.07812H68.9531C70.2969 7.74479 70.9688 8.69792 70.9688 9.9375C71.2083 9.9375 71.375 10.4375 71.4688 11.4375V12.2812H71.7969C72.6302 10.0833 73.9167 8.51562 75.6562 7.57812H76.5C78.8438 7.57812 80.0156 12.1042 80.0156 21.1562C79.849 21.6042 79.6823 21.8281 79.5156 21.8281H78.8438C78.1771 21.8281 77.8438 19.3177 77.8438 14.2969C77.3646 11.0469 76.8594 9.42188 76.3281 9.42188H76C74.2083 11.1198 73.1979 12.9115 72.9688 14.7969C72.4896 18.3073 71.9323 20.0938 71.2969 20.1562H70.625C70.4688 20.1562 70.3021 19.9896 70.125 19.6562C70.125 19.4167 70.1823 18.8021 70.2969 17.8125C69.8177 11.8854 69.2031 8.92188 68.4531 8.92188H68.1094C66.9115 8.92188 65.6302 10.151 64.2656 12.6094C63.1406 15.224 62.5781 17.6823 62.5781 19.9844V21.3281C62.349 21.776 62.0729 22 61.75 22C60.9688 21.8438 60.5781 21.6198 60.5781 21.3281V20.4844L59.9062 13.7812V8.92188C59.9062 8.52604 59.849 8.02604 59.7344 7.42188C59.9531 6.91146 60.1771 6.63021 60.4062 6.57812ZM93.2344 6.15625C94.0573 6.15625 94.4688 7.66146 94.4688 10.6719C94.4688 11.1615 94.6771 14.724 95.0938 21.3594C94.8854 21.9115 94.6771 22.1875 94.4688 22.1875H94.0625C93.8646 22.1875 93.6562 21.9844 93.4375 21.5781C93.3438 16.9115 93.2083 14.5781 93.0312 14.5781C92.7917 14.4427 92.5208 14.375 92.2188 14.375H84.6094C84.3698 14.375 84.026 16.3646 83.5781 20.3438C83.2344 20.6146 83.0312 20.75 82.9688 20.75H82.75L82.1406 20.3438C82.5469 17.375 82.75 13.6719 82.75 9.23438C82.75 9.01562 82.6823 8.19271 82.5469 6.76562L83.1719 6.35938H83.5781C83.9948 6.44271 84.2031 6.98958 84.2031 8V12.5312C84.2448 12.8021 84.3802 12.9375 84.6094 12.9375H92.8281V12.7344C92.8281 12.1198 92.7604 10.0625 92.625 6.5625L93.2344 6.15625ZM99.1406 6.54688H99.7344C100.245 6.84896 100.5 7.20312 100.5 7.60938L99.7344 13.6875V15.0469C100.724 18.3906 101.891 20.0625 103.234 20.0625C105.568 19.4271 106.734 18.4635 106.734 17.1719C107.005 17.1719 107.307 14.3385 107.641 8.67188V7.45312C107.641 7.04688 107.844 6.74479 108.25 6.54688H109C109.146 6.54688 109.401 6.79688 109.766 7.29688V11.8594C109.766 14.9531 110.12 17.4323 110.828 19.2969H111.141C111.651 18.8906 111.953 18.6875 112.047 18.6875C112.755 18.6875 113.109 19.0417 113.109 19.75V20.2188C112.203 21.3333 111.391 21.8906 110.672 21.8906C109.839 21.8906 109.13 21.0781 108.547 19.4531C108.297 19.2552 108.146 19.1562 108.094 19.1562C107.24 21.1771 105.771 22.1875 103.688 22.1875H103.531C101.99 22.1875 100.37 20.9219 98.6719 18.3906C98.0677 16.7552 97.7656 15.3854 97.7656 14.2812V12.6094C98.1094 8.56771 98.5677 6.54688 99.1406 6.54688ZM115.375 6.29688H115.625C116.667 6.29688 117.188 7.38542 117.188 9.5625C117.188 10.8229 117.349 11.9896 117.672 13.0625V15L117.797 15.5938H117.922C118.078 15.5938 118.156 15.5156 118.156 15.3594V13.5469C120.062 11.7552 121.875 9.78125 123.594 7.625H123.719C124.375 7.625 124.818 8.06771 125.047 8.95312V9.20312L121.656 14.1406V14.3906C121.979 14.9323 123.51 16.625 126.25 19.4688L126.969 20.4219V21.0312C126.771 21.4375 126.453 21.6406 126.016 21.6406H125.641C122.38 18.1302 120.609 16.2344 120.328 15.9531H119.969C119.219 17.0885 118.411 17.6562 117.547 17.6562C117.547 17.8125 117.51 17.8906 117.438 17.8906L117.547 18.7344V19.9531C117.547 21.3177 117.104 22 116.219 22C115.74 21.5104 115.5 21.1094 115.5 20.7969C115.5 18.4219 115.339 13.75 115.016 6.78125C115.141 6.45833 115.26 6.29688 115.375 6.29688ZM141.219 6.32812H141.547C142.255 6.61979 143.167 8.55208 144.281 12.125C144.74 13.2083 144.969 14 144.969 14.5H145.297C145.641 13.6458 146.495 10.9219 147.859 6.32812C148.234 6.02604 148.573 6.02604 148.875 6.32812C149.26 6.63021 149.885 8.84375 150.75 12.9688C151.656 15.8125 152.682 18.4271 153.828 20.8125V21.4844C153.828 21.651 153.656 21.8229 153.312 22H152.969C151.979 21.5625 150.672 18.7812 149.047 13.6562C148.703 12.1458 148.531 11.349 148.531 11.2656H148.375C147.323 15.6927 146.354 17.9062 145.469 17.9062C144.719 17.9062 143.698 16.0312 142.406 12.2812H142.062C141.042 17.7396 139.734 20.4688 138.141 20.4688H137.641C137.464 20.4688 137.234 20.2396 136.953 19.7812C136.953 19.1667 137.292 18.7135 137.969 18.4219C139.677 15.8906 140.531 12.1406 140.531 7.17188C140.823 6.60938 141.052 6.32812 141.219 6.32812ZM161.375 6.46875C161.885 6.40625 162.458 6.40625 163.094 6.46875C164.833 6.60417 166.104 7.41667 166.906 8.90625C167.073 9.16667 167.208 9.47917 167.312 9.84375C167.385 10.2708 167.385 10.6771 167.312 11.0625C167.375 11.9792 167 12.6875 166.188 13.1875C165.052 13.6562 163.943 13.8854 162.859 13.875L158.406 13.8906L157.734 14.0312C157.734 17.5 158.812 19.5052 160.969 20.0469C161.51 20.1823 162.005 20.25 162.453 20.25C162.745 20.25 163.01 20.2083 163.25 20.125C164.552 19.4271 165.401 18.5 165.797 17.3438C165.818 17.2812 165.839 17.2188 165.859 17.1562C165.964 16.9896 166.135 16.8958 166.375 16.875C166.854 16.875 167.167 17.0521 167.312 17.4062C167.417 17.7083 167.417 18.026 167.312 18.3594C167.083 19.2344 166.635 20.0417 165.969 20.7812C165.615 21.1354 164.984 21.5417 164.078 22C162.964 22.3021 161.88 22.3021 160.828 22C160.068 21.7708 159.396 21.4115 158.812 20.9219C156.917 19.5677 155.969 17.7656 155.969 15.5156C155.927 15.401 155.906 15.2708 155.906 15.125L155.953 14.2031C155.943 13.2656 156.219 11.9479 156.781 10.25C157.177 9.19792 157.766 8.38542 158.547 7.8125C159.453 7.04167 160.396 6.59375 161.375 6.46875ZM158.141 11.875L158.406 12H161.375C163.99 11.7292 165.297 11.2344 165.297 10.5156V10.25C165.182 8.89583 164.547 8.15104 163.391 8.01562C162.932 7.86979 162.443 7.84896 161.922 7.95312C161.016 7.99479 160.068 8.57812 159.078 9.70312L158.141 11.875ZM175.312 6.4375C176.719 6.4375 178.177 7.09375 179.688 8.40625V8.85938C179.5 9.22396 179.198 9.47396 178.781 9.60938C177.625 9.00521 176.469 8.55208 175.312 8.25C172.865 8.25 171.255 9.96354 170.484 13.3906C170.38 13.7448 170.328 14.25 170.328 14.9062C170.328 17.0729 171.234 18.5833 173.047 19.4375C173.526 19.5104 174.281 19.6094 175.312 19.7344C176.604 19.7344 177.661 18.9792 178.484 17.4688L178.781 17.3125H179.391C179.536 17.3125 179.688 17.4635 179.844 17.7656V18.6719C179.104 19.9323 177.948 21.0417 176.375 22H174.109C170.38 20.8958 168.516 18.4792 168.516 14.75V14.5938C168.516 11.4062 169.776 8.98958 172.297 7.34375C173.339 6.73958 174.344 6.4375 175.312 6.4375ZM187.703 6.10938C188.234 6.10938 188.969 6.45833 189.906 7.15625C190.167 7 190.401 6.92188 190.609 6.92188H190.844C191.125 7.00521 191.432 7.46875 191.766 8.3125C191.849 10.3542 191.891 12.0573 191.891 13.4219C191.891 14.0469 191.849 14.5469 191.766 14.9219C191.849 15.5156 191.891 16.1719 191.891 16.8906V20.6094C191.641 21.151 191.292 21.4219 190.844 21.4219H190.719C190.26 21.224 190.031 20.9115 190.031 20.4844V18.875C190.031 17.0938 189.911 16.2031 189.672 16.2031C189.411 16.2031 187.521 18.1354 184 22H183.062C182.958 22 182.844 21.8854 182.719 21.6562V21.4219C182.719 20.7656 183.453 19.7604 184.922 18.4062C184.922 18.3229 185.542 17.7031 186.781 16.5469V16.4375H186.078C185.13 16.4375 184.052 15.974 182.844 15.0469C181.833 13.9635 181.328 12.8385 181.328 11.6719C181.328 10.4427 181.948 9.13021 183.188 7.73438C184.365 6.65104 185.87 6.10938 187.703 6.10938ZM183.297 11.7969C183.297 13.401 184.344 14.3281 186.438 14.5781C188.833 14.0469 190.031 12.9271 190.031 11.2188V10.0469C188.969 8.66146 188.078 7.96875 187.359 7.96875C186.411 7.96875 185.521 8.27604 184.688 8.89062C183.76 9.68229 183.297 10.651 183.297 11.7969ZM195.328 6.875C196.016 6.875 196.448 7.18229 196.625 7.79688L195.891 13.2969V15.125C196.495 17.5833 197.469 19.1771 198.812 19.9062H199.375C201.698 19.1771 202.859 18.0156 202.859 16.4219C203.286 10.6302 203.651 7.44792 203.953 6.875H204.328C205.182 6.875 205.609 7.30208 205.609 8.15625V13.4844C205.609 15.2448 205.917 17.1406 206.531 19.1719H206.719C207.26 18.7135 207.807 18.3438 208.359 18.0625C209.464 18.4688 210.016 19.2031 210.016 20.2656C210.016 22.5781 208.854 24.8438 206.531 27.0625H206.344C206.177 27.0625 205.87 26.7552 205.422 26.1406V25.5938C206.776 23.9792 207.453 22.5729 207.453 21.375H207.266L205.984 21.5625C205.443 21.5625 204.891 20.7656 204.328 19.1719H203.781C203.781 20.4635 202.557 21.3802 200.109 21.9219H199.188C197.5 21.9219 195.849 20.2708 194.234 16.9688C193.911 16.1771 193.781 14.8906 193.844 13.1094C194.312 8.95312 194.807 6.875 195.328 6.875ZM214.062 6.4375C214.625 6.125 215.479 6.08333 216.625 6.3125C218.812 6.60417 220.599 8.08333 221.984 10.75C223.005 12.6562 223.682 14.7448 224.016 17.0156C223.661 18.8073 222.182 20.4115 219.578 21.8281C218.318 22.0677 217.214 22.0677 216.266 21.8281C214.047 20.7865 212.88 19.5677 212.766 18.1719C212.714 17.5469 212.771 16.9792 212.938 16.4688C213.49 14.6875 214.474 13.3958 215.891 12.5938C216.682 12.2188 217.286 12.0052 217.703 11.9531C218.339 11.8698 219.026 11.8958 219.766 12.0312C220.151 12.1458 220.599 12.2708 221.109 12.4062L221.062 12.7812V12.4062C219.812 9.44792 218.333 7.96875 216.625 7.96875H215.156C213.688 8.63542 212.818 8.94792 212.547 8.90625C212.068 8.95833 211.828 8.89583 211.828 8.71875V8.34375C211.828 7.5625 212.573 6.92708 214.062 6.4375ZM214.781 16.4688C214.354 17.1562 214.323 17.875 214.688 18.625C214.875 19.1458 215.828 19.7188 217.547 20.3438C218.953 20.3438 220.307 19.3594 221.609 17.3906C221.734 17.1823 221.797 16.875 221.797 16.4688C221.547 15.1354 220.625 14.2708 219.031 13.875H218.469C217.115 13.875 215.885 14.7396 214.781 16.4688Z" fill="#414042"/>
<path d="M0.109375 26.5625H225.891V28.9062H0.109375V26.5625Z" fill="#414042"/>
</svg>
